# FamiTracker text export 0.5.0

# Song information
TITLE           "Gauntlet"
AUTHOR          "WoW64"
COPYRIGHT       "Inti Creats"

# Song comment
COMMENT ""

# Global settings
MACHINE         0
EXPANSION       1
VIBRATO         1
SPLIT           32
PLAYBACKRATE    0 16666
TUNING          0 0

# Macros
MACRO       0   0  -1  -1   0 : 15 9 7 6 5 4 3 2 0
MACRO       0   1  -1  -1   0 : 15 13 12 10 9 8 7 7 6 5 5 4 4 3 3 2 2 2 2 1 1 1 1 1 0
MACRO       0   2  -1  -1   0 : 15 15 15 15 10 10 10 10 8 6 6 6 6 4 4 4 4 2 0
MACRO       0   3  -1  -1   0 : 15 10 3 1 0
MACRO       0   4  -1  -1   0 : 15 13 11 9 7 5 3 2 1 0
MACRO       0   5  -1  -1   0 : 15 15
MACRO       0   6  -1  -1   0 : 15 14
MACRO       0   7  -1  -1   0 : 15 15 15 15 15 15 15 15 15 15 15 15 15 0
MACRO       0   8  -1   2   0 : 15 12 10 9 8 8 7 7 6 6 5 5 4 4 3 3 2 2 1 1 0
MACRO       0   9  -1  -1   0 : 15 13 5 7 5 3 3 2 2 1
MACRO       1   0  -1   1   0 : 12 0 -1 -2 -3 -4 -5 -6 -7 -8 -9 -10 -11 -12 -13 -14 -15 -16 -17
MACRO       2   0   0  -1   0 : 24
MACRO       4   0  -1  -1   0 : 0
MACRO       4   1  -1  -1   0 : 0
MACRO       4   2  -1  -1   0 : 0
MACRO       4   3  -1  -1   0 : 0
MACRO       4   4  -1  -1   0 : 0
MACRO       4   5  -1  -1   0 : 1
MACRO       4   6  -1  -1   0 : 0 0 1
MACRO       4   7  -1  -1   0 : 1
MACROVRC6   0   0  -1   2   0 : 15 12 10 9 8 8 7 7 6 6 5 5 4 4 3 3 2 2 1 1 0
MACROVRC6   0   1  -1   4   0 : 5 9 12 14 12 10 9 8 7 6 6 5 5 4 4 4 3 3 3 2 2 2 2 1 1 1 1 1 0
MACROVRC6   0   2  -1   4   0 : 3 6 8 9 10 8 7 6 6 5 5 4 4 3 3 2 2 1 1 0
MACROVRC6   0   3  -1   4   0 : 5 9 12 14 12 10 9 8 7 6 6 5 5 4 4 4 3 3 3 2 2 2 2 1 1 1 1 1 0
MACROVRC6   0   4  -1  -1   0 : 15 15
MACROVRC6   1   0  -1   1   0 : 12 0 -1 -2 -3 -4 -5 -6 -7 -8 -9 -10 -11 -12 -13 -14 -15 -16 -17
MACROVRC6   4   0  -1  -1   0 : 5
MACROVRC6   4   1  -1  -1   0 : 0 0 2
MACROVRC6   4   2  -1  -1   0 : 6

# DPCM samples

# Instruments
INST2A03   0     0  -1  -1  -1   0 "1-# kick 1"
INST2A03   1     1  -1  -1  -1   1 "7-# Snare 4"
INST2A03   2     2  -1  -1  -1   2 "B-# Cymbal"
INST2A03   4     4  -1  -1  -1   4 "B-# Hihat 3"
INST2A03   5     5  -1  -1  -1  -1 "Lead 1"
INST2A03   6     6  -1  -1  -1   5 "Reg-3"
INST2A03   7     7  -1   0  -1  -1 "TriSld3"
INSTVRC6   8     0   0  -1  -1   1 "Bass Guitar"
INSTVRC6   9     3   0  -1  -1  -1 "Brass"
INST2A03  10     8   0  -1  -1   6 "Guitar"
INSTVRC6  11     2  -1  -1  -1   0 "Strings"
INST2A03  12     9  -1  -1  -1  -1 "Wily Stg1 Echo"
INST2A03  13     8  -1  -1  -1   7 "Strings"

# Tracks

TRACK  32   3 163 "New song"
COLUMNS : 2 1 1 1 1 1 1 1

ORDER 00 : 00 00 03 00 00 00 00 00
ORDER 01 : 01 01 04 01 01 01 01 01
ORDER 02 : 00 00 03 00 02 02 02 00
ORDER 03 : 01 01 04 01 03 03 03 01
ORDER 04 : 00 00 03 00 04 04 04 00
ORDER 05 : 01 01 04 01 05 05 05 01
ORDER 06 : 00 00 03 00 06 06 06 00
ORDER 07 : 02 01 01 02 07 07 07 02
ORDER 08 : 03 00 03 00 08 08 08 00
ORDER 09 : 04 01 04 01 09 09 09 01
ORDER 0A : 05 00 03 00 0A 0A 0A 00
ORDER 0B : 04 01 04 01 0B 09 0B 01
ORDER 0C : 06 00 03 00 0C 0B 0C 00
ORDER 0D : 07 01 04 01 0D 0C 0D 01
ORDER 0E : 08 00 03 00 0E 0D 0E 00
ORDER 0F : 09 01 04 01 0F 0E 0F 01
ORDER 10 : 03 00 03 00 11 08 08 00
ORDER 11 : 04 01 04 01 10 09 09 01
ORDER 12 : 05 00 03 00 12 0A 0A 00
ORDER 13 : 04 01 04 01 14 0E 0B 01
ORDER 14 : 06 00 03 00 13 0B 0C 00
ORDER 15 : 07 01 04 01 15 0F 11 01
ORDER 16 : 08 00 03 00 16 0D 0E 00
ORDER 17 : 0D 01 04 01 17 11 12 01
ORDER 18 : 0E 02 00 03 18 12 10 03
ORDER 19 : 0E 02 00 04 19 12 13 03
ORDER 1A : 0E 02 00 04 1A 13 14 03
ORDER 1B : 0F 02 00 04 1B 14 15 03
ORDER 1C : 0E 03 00 03 1C 15 16 04
ORDER 1D : 0E 04 00 04 1D 15 17 05
ORDER 1E : 0E 02 00 04 1E 16 16 03
ORDER 1F : 0F 02 00 04 1F 17 19 03
ORDER 20 : 0E 02 00 03 20 12 16 03
ORDER 21 : 0E 02 00 04 21 12 18 03
ORDER 22 : 0E 02 00 04 22 13 1A 03
ORDER 23 : 0F 02 00 04 23 14 15 03
ORDER 24 : 0E 03 00 04 24 15 16 04
ORDER 25 : 0E 04 00 04 25 15 17 05
ORDER 26 : 0E 02 00 04 26 16 16 03
ORDER 27 : 0F 02 00 04 27 18 1C 03
ORDER 28 : 0E 03 00 03 28 19 16 04
ORDER 29 : 0E 04 00 04 29 1A 17 05
ORDER 2A : 0E 03 00 04 2A 1B 16 04
ORDER 2B : 0E 04 00 04 2B 1A 17 05
ORDER 2C : 0E 03 00 04 2C 1C 16 04
ORDER 2D : 0E 04 00 04 2D 1D 17 05
ORDER 2E : 00 00 03 03 2E 1E 16 00
ORDER 2F : 01 01 04 01 2F 1F 1D 01

PATTERN 00
ROW 00 : --- .. . ... ... : C#2 0A C ... : A-3 07 . ... : 1-# 00 C ... : ... .. . ... : ... .. . ... : G#3 0B 9 482 : F#1 08 F ...
ROW 01 : ... .. . ... ... : ... .. . ... : ... .. . ... : ... .. . ... : ... .. . ... : ... .. . ... : ... .. . ... : ... .. . ...
ROW 02 : ... .. . ... ... : ... .. . ... : ... .. . ... : ... .. . ... : ... .. . ... : ... .. . ... : ... .. . ... : ... .. . ...
ROW 03 : ... .. . ... ... : ... .. . ... : ... .. . ... : ... .. . ... : ... .. . ... : ... .. . ... : ... .. . ... : ... .. . ...
ROW 04 : ... .. . ... ... : D#2 0A . ... : ... .. . ... : 1-# 00 . ... : ... .. . ... : ... .. . ... : ... .. . ... : G#1 08 . ...
ROW 05 : ... .. . ... ... : ... .. . ... : ... .. . ... : ... .. . ... : ... .. . ... : ... .. . ... : ... .. . ... : ... .. . ...
ROW 06 : ... .. . ... ... : ... .. . ... : ... .. . ... : ... .. . ... : ... .. . ... : ... .. . ... : ... .. . ... : ... .. . ...
ROW 07 : ... .. . ... ... : ... .. . ... : ... .. . ... : ... .. . ... : ... .. . ... : ... .. . ... : ... .. . ... : ... .. . ...
ROW 08 : ... .. . ... ... : === .. . ... : A-4 07 . ... : 7-# 01 . ... : ... .. . ... : ... .. . ... : ... .. . ... : === .. . ...
ROW 09 : ... .. . ... ... : ... .. . ... : ... .. . ... : ... .. . ... : ... .. . ... : ... .. . ... : ... .. . ... : ... .. . ...
ROW 0A : ... .. . ... ... : ... .. . ... : ... .. . ... : ... .. . ... : ... .. . ... : ... .. . ... : ... .. . ... : ... .. . ...
ROW 0B : ... .. . ... ... : ... .. . ... : ... .. . ... : ... .. . ... : ... .. . ... : ... .. . ... : ... .. . ... : ... .. . ...
ROW 0C : G#3 0C . V00 ... : D#2 0A . ... : ... .. . ... : B-# 04 5 ... : ... .. . ... : ... .. . ... : ... .. . ... : G#1 08 . ...
ROW 0D : ... .. . ... ... : ... .. . ... : ... .. . ... : ... .. . ... : ... .. . ... : ... .. . ... : ... .. . ... : ... .. . ...
ROW 0E : G#3 0C . ... ... : ... .. . ... : ... .. . ... : ... .. . ... : ... .. . ... : ... .. . ... : ... .. . ... : ... .. . ...
ROW 0F : ... .. . ... ... : ... .. . ... : ... .. . ... : ... .. . ... : ... .. . ... : ... .. . ... : ... .. . ... : ... .. . ...
ROW 10 : --- .. . ... ... : === .. . ... : ... .. . ... : B-# 04 . ... : ... .. . ... : ... .. . ... : ... .. . ... : === .. . ...
ROW 11 : ... .. . ... ... : ... .. . ... : ... .. . ... : ... .. . ... : ... .. . ... : ... .. . ... : ... .. . ... : ... .. . ...
ROW 12 : ... .. . ... ... : ... .. . ... : ... .. . ... : ... .. . ... : ... .. . ... : ... .. . ... : ... .. . ... : ... .. . ...
ROW 13 : ... .. . ... ... : ... .. . ... : ... .. . ... : ... .. . ... : ... .. . ... : ... .. . ... : ... .. . ... : ... .. . ...
ROW 14 : ... .. . ... ... : F#2 0A . ... : A-3 07 . ... : 1-# 00 C ... : ... .. . ... : ... .. . ... : ... .. . ... : B-1 08 . ...
ROW 15 : ... .. . ... ... : ... .. . ... : ... .. . ... : ... .. . ... : ... .. . ... : ... .. . ... : ... .. . ... : ... .. . ...
ROW 16 : ... .. . ... ... : ... .. . ... : ... .. . ... : ... .. . ... : ... .. . ... : ... .. . ... : ... .. . ... : ... .. . ...
ROW 17 : ... .. . ... ... : ... .. . ... : ... .. . ... : ... .. . ... : ... .. . ... : ... .. . ... : ... .. . ... : ... .. . ...
ROW 18 : ... .. . ... ... : G#2 0A . ... : A-4 07 . ... : B-# 04 5 ... : ... .. . ... : ... .. . ... : ... .. . ... : C#2 08 . ...
ROW 19 : ... .. . ... ... : ... .. . ... : ... .. . ... : ... .. . ... : ... .. . ... : ... .. . ... : ... .. . ... : ... .. . ...
ROW 1A : ... .. . ... ... : ... .. . ... : ... .. . ... : ... .. . ... : ... .. . ... : ... .. . ... : ... .. . ... : ... .. . ...
ROW 1B : ... .. . ... ... : ... .. . ... : ... .. . ... : ... .. . ... : ... .. . ... : ... .. . ... : ... .. . ... : ... .. . ...
ROW 1C : ... .. . ... ... : C#2 0A . ... : ... .. . ... : 7-# 01 C ... : ... .. . ... : ... .. . ... : ... .. . ... : F#1 08 . ...
ROW 1D : ... .. . ... ... : ... .. . ... : ... .. . ... : ... .. . ... : ... .. . ... : ... .. . ... : ... .. . ... : ... .. . ...
ROW 1E : ... .. . ... ... : ... .. . ... : ... .. . ... : ... .. . ... : ... .. . ... : ... .. . ... : ... .. . ... : ... .. . ...
ROW 1F : ... .. . ... ... : ... .. . ... : ... .. . ... : ... .. . ... : ... .. . ... : ... .. . ... : ... .. . ... : ... .. . ...

PATTERN 01
ROW 00 : ... .. . ... ... : C#2 0A C ... : A-3 07 . ... : 1-# 00 C ... : ... .. . ... : ... .. . ... : ... .. . ... : F#1 08 . ...
ROW 01 : ... .. . ... ... : ... .. . ... : ... .. . ... : ... .. . ... : ... .. . ... : ... .. . ... : ... .. . ... : ... .. . ...
ROW 02 : ... .. . ... ... : ... .. . ... : ... .. . ... : ... .. . ... : ... .. . ... : ... .. . ... : ... .. . ... : ... .. . ...
ROW 03 : ... .. . ... ... : ... .. . ... : ... .. . ... : ... .. . ... : ... .. . ... : ... .. . ... : ... .. . ... : ... .. . ...
ROW 04 : ... .. . ... ... : D#2 0A . ... : ... .. . ... : 1-# 00 . ... : ... .. . ... : ... .. . ... : ... .. . ... : G#1 08 . ...
ROW 05 : ... .. . ... ... : ... .. . ... : ... .. . ... : ... .. . ... : ... .. . ... : ... .. . ... : ... .. . ... : ... .. . ...
ROW 06 : ... .. . ... ... : ... .. . ... : ... .. . ... : ... .. . ... : ... .. . ... : ... .. . ... : ... .. . ... : ... .. . ...
ROW 07 : ... .. . ... ... : ... .. . ... : ... .. . ... : ... .. . ... : ... .. . ... : ... .. . ... : ... .. . ... : ... .. . ...
ROW 08 : ... .. . ... ... : === .. . ... : A-4 07 . ... : 7-# 01 . ... : ... .. . ... : ... .. . ... : ... .. . ... : === .. . ...
ROW 09 : ... .. . ... ... : ... .. . ... : ... .. . ... : ... .. . ... : ... .. . ... : ... .. . ... : ... .. . ... : ... .. . ...
ROW 0A : ... .. . ... ... : ... .. . ... : ... .. . ... : ... .. . ... : ... .. . ... : ... .. . ... : ... .. . ... : ... .. . ...
ROW 0B : ... .. . ... ... : ... .. . ... : ... .. . ... : ... .. . ... : ... .. . ... : ... .. . ... : ... .. . ... : ... .. . ...
ROW 0C : ... .. . ... ... : D#2 0A . ... : ... .. . ... : B-# 04 5 ... : ... .. . ... : ... .. . ... : ... .. . ... : G#1 08 . ...
ROW 0D : ... .. . ... ... : ... .. . ... : ... .. . ... : ... .. . ... : ... .. . ... : ... .. . ... : ... .. . ... : ... .. . ...
ROW 0E : ... .. . ... ... : ... .. . ... : ... .. . ... : 7-# 01 C ... : ... .. . ... : ... .. . ... : ... .. . ... : ... .. . ...
ROW 0F : ... .. . ... ... : ... .. . ... : ... .. . ... : ... .. . ... : ... .. . ... : ... .. . ... : ... .. . ... : ... .. . ...
ROW 10 : ... .. . ... ... : === .. . ... : ... .. . ... : B-# 04 5 ... : ... .. . ... : ... .. . ... : ... .. . ... : === .. . ...
ROW 11 : ... .. . ... ... : ... .. . ... : ... .. . ... : ... .. . ... : ... .. . ... : ... .. . ... : ... .. . ... : ... .. . ...
ROW 12 : ... .. . ... ... : ... .. . ... : ... .. . ... : ... .. . ... : ... .. . ... : ... .. . ... : ... .. . ... : ... .. . ...
ROW 13 : ... .. . ... ... : ... .. . ... : ... .. . ... : ... .. . ... : ... .. . ... : ... .. . ... : ... .. . ... : ... .. . ...
ROW 14 : D#4 0C . V01 ... : ... .. . ... : ... .. . ... : 1-# 00 C ... : ... .. . ... : ... .. . ... : ... .. . ... : ... .. . ...
ROW 15 : ... .. . ... ... : ... .. . ... : ... .. . ... : ... .. . ... : ... .. . ... : ... .. . ... : ... .. . ... : ... .. . ...
ROW 16 : ... .. . ... ... : ... .. . ... : ... .. . ... : ... .. . ... : ... .. . ... : ... .. . ... : ... .. . ... : ... .. . ...
ROW 17 : ... .. . ... ... : ... .. . ... : ... .. . ... : ... .. . ... : ... .. . ... : ... .. . ... : ... .. . ... : ... .. . ...
ROW 18 : C#4 0C . ... ... : ... .. . ... : ... .. . ... : B-# 04 5 ... : ... .. . ... : ... .. . ... : ... .. . ... : ... .. . ...
ROW 19 : ... .. . ... ... : ... .. . ... : ... .. . ... : ... .. . ... : ... .. . ... : ... .. . ... : ... .. . ... : ... .. . ...
ROW 1A : ... .. . ... ... : ... .. . ... : ... .. . ... : ... .. . ... : ... .. . ... : ... .. . ... : ... .. . ... : ... .. . ...
ROW 1B : ... .. . ... ... : ... .. . ... : ... .. . ... : ... .. . ... : ... .. . ... : ... .. . ... : ... .. . ... : ... .. . ...
ROW 1C : F#4 0C . ... ... : ... .. . ... : ... .. . ... : 7-# 01 C ... : ... .. . ... : ... .. . ... : ... .. . ... : ... .. . ...
ROW 1D : ... .. . ... ... : ... .. . ... : ... .. . ... : ... .. . ... : ... .. . ... : ... .. . ... : ... .. . ... : ... .. . ...
ROW 1E : ... .. . ... ... : ... .. . ... : ... .. . ... : ... .. . ... : ... .. . ... : ... .. . ... : ... .. . ... : ... .. . ...
ROW 1F : ... .. . ... ... : ... .. . ... : ... .. . ... : ... .. . ... : ... .. . ... : ... .. . ... : ... .. . ... : ... .. . ...

PATTERN 02
ROW 00 : ... .. . ... ... : C#2 0A C ... : A-3 07 . ... : 1-# 00 C ... : ... .. . ... : ... .. . ... : F#3 0B 9 482 : F#1 08 . ...
ROW 01 : ... .. . ... ... : ... .. . ... : ... .. . ... : ... .. . ... : ... .. . ... : ... .. . ... : ... .. . ... : ... .. . ...
ROW 02 : ... .. . ... ... : ... .. . ... : ... .. . ... : ... .. . ... : ... .. . ... : ... .. . ... : ... .. . ... : ... .. . ...
ROW 03 : ... .. . ... ... : ... .. . ... : ... .. . ... : ... .. . ... : ... .. . ... : ... .. . ... : ... .. . ... : ... .. . ...
ROW 04 : ... .. . ... ... : D#2 0A . ... : ... .. . ... : 1-# 00 . ... : ... .. . ... : ... .. . ... : ... .. . ... : G#1 08 . ...
ROW 05 : ... .. . ... ... : ... .. . ... : ... .. . ... : ... .. . ... : ... .. . ... : ... .. . ... : ... .. . ... : ... .. . ...
ROW 06 : ... .. . ... ... : ... .. . ... : ... .. . ... : ... .. . ... : ... .. . ... : ... .. . ... : ... .. . ... : ... .. . ...
ROW 07 : ... .. . ... ... : ... .. . ... : ... .. . ... : ... .. . ... : ... .. . ... : ... .. . ... : ... .. . ... : ... .. . ...
ROW 08 : ... .. . ... ... : === .. . ... : A-4 07 . ... : 7-# 01 . ... : ... .. . ... : ... .. . ... : ... .. . ... : === .. . ...
ROW 09 : ... .. . ... ... : ... .. . ... : ... .. . ... : ... .. . ... : ... .. . ... : ... .. . ... : ... .. . ... : ... .. . ...
ROW 0A : ... .. . ... ... : ... .. . ... : ... .. . ... : ... .. . ... : ... .. . ... : ... .. . ... : ... .. . ... : ... .. . ...
ROW 0B : ... .. . ... ... : ... .. . ... : ... .. . ... : ... .. . ... : ... .. . ... : ... .. . ... : ... .. . ... : ... .. . ...
ROW 0C : ... .. . ... ... : D#2 0A . ... : G#5 05 . ... : 1-# 00 C ... : ... .. . ... : ... .. . ... : ... .. . ... : G#1 08 . ...
ROW 0D : ... .. . ... ... : ... .. . ... : --- .. . ... : ... .. . ... : ... .. . ... : ... .. . ... : ... .. . ... : ... .. . ...
ROW 0E : ... .. . ... ... : ... .. . ... : G#5 05 . ... : ... .. . ... : ... .. . ... : ... .. . ... : ... .. . ... : ... .. . ...
ROW 0F : ... .. . ... ... : ... .. . ... : --- .. . ... : ... .. . ... : ... .. . ... : ... .. . ... : ... .. . ... : ... .. . ...
ROW 10 : ... .. . ... ... : === .. . ... : ... .. . ... : ... .. . ... : ... .. . ... : ... .. . ... : ... .. . ... : === .. . ...
ROW 11 : ... .. . ... ... : ... .. . ... : ... .. . ... : ... .. . ... : ... .. . ... : ... .. . ... : ... .. . ... : ... .. . ...
ROW 12 : ... .. . ... ... : ... .. . ... : ... .. . ... : ... .. . ... : ... .. . ... : ... .. . ... : ... .. . ... : ... .. . ...
ROW 13 : ... .. . ... ... : ... .. . ... : ... .. . ... : ... .. . ... : ... .. . ... : ... .. . ... : ... .. . ... : ... .. . ...
ROW 14 : ... .. . ... ... : D#2 0A . ... : A-3 07 . ... : ... .. . ... : ... .. . ... : ... .. . ... : ... .. . ... : F#1 08 7 ...
ROW 15 : ... .. . ... ... : ... .. . ... : ... .. . ... : ... .. . ... : ... .. . ... : ... .. . ... : ... .. . ... : ... .. . ...
ROW 16 : ... .. . ... ... : ... .. . ... : ... .. . ... : ... .. . ... : ... .. . ... : ... .. . ... : ... .. . ... : ... .. . ...
ROW 17 : ... .. . ... ... : ... .. . ... : ... .. . ... : ... .. . ... : ... .. . ... : ... .. . ... : ... .. . ... : ... .. . ...
ROW 18 : G#2 0A . ... ... : === .. . ... : A-4 07 . ... : ... .. . ... : ... .. . ... : ... .. . ... : ... .. . ... : ... .. . ...
ROW 19 : ... .. . ... ... : ... .. . ... : ... .. . ... : ... .. . ... : ... .. . ... : ... .. . ... : ... .. . ... : ... .. . ...
ROW 1A : ... .. . ... ... : ... .. . ... : ... .. . ... : ... .. . ... : ... .. . ... : ... .. . ... : ... .. . ... : ... .. . ...
ROW 1B : ... .. . ... ... : ... .. . ... : ... .. . ... : ... .. . ... : ... .. . ... : ... .. . ... : ... .. . ... : ... .. . ...
ROW 1C : B-2 0A . ... ... : D#2 0A . ... : ... .. . ... : ... .. . ... : ... .. . ... : ... .. . ... : ... .. . ... : ... .. . ...
ROW 1D : ... .. . ... ... : ... .. . ... : ... .. . ... : ... .. . ... : ... .. . ... : ... .. . ... : ... .. . ... : ... .. . ...
ROW 1E : ... .. . ... ... : ... .. . ... : ... .. . ... : ... .. . ... : ... .. . ... : ... .. . ... : ... .. . ... : ... .. . ...
ROW 1F : ... .. . ... ... : ... .. . ... : ... .. . ... : ... .. . ... : ... .. . ... : ... .. . ... : ... .. . ... : ... .. . ...

PATTERN 03
ROW 00 : D#3 0A . ... ... : B-1 0A C ... : A-3 07 . ... : B-# 02 F ... : ... .. . ... : ... .. . ... : ... .. . ... : F#1 08 F ...
ROW 01 : ... .. . ... ... : ... .. . ... : ... .. . ... : ... .. . ... : ... .. . ... : ... .. . ... : ... .. . ... : ... .. . ...
ROW 02 : ... .. . ... ... : ... .. . ... : ... .. . ... : ... .. . ... : ... .. . ... : ... .. . ... : ... .. . ... : ... .. . ...
ROW 03 : ... .. . ... ... : ... .. . ... : ... .. . ... : ... .. . ... : ... .. . ... : ... .. . ... : ... .. . ... : ... .. . ...
ROW 04 : C#3 0A . ... ... : B-1 0A . ... : ... .. . ... : ... .. . ... : ... .. . ... : ... .. . ... : ... .. . ... : G#1 08 . ...
ROW 05 : ... .. . ... ... : ... .. . ... : ... .. . ... : ... .. . ... : ... .. . ... : ... .. . ... : ... .. . ... : ... .. . ...
ROW 06 : ... .. . ... ... : ... .. . ... : ... .. . ... : ... .. . ... : ... .. . ... : ... .. . ... : ... .. . ... : ... .. . ...
ROW 07 : ... .. . ... ... : ... .. . ... : ... .. . ... : ... .. . ... : ... .. . ... : ... .. . ... : ... .. . ... : ... .. . ...
ROW 08 : D#3 0A . ... ... : === .. . ... : A-4 07 . ... : 7-# 01 C ... : ... .. . ... : ... .. . ... : ... .. . ... : === .. . ...
ROW 09 : ... .. . ... ... : ... .. . ... : ... .. . ... : ... .. . ... : ... .. . ... : ... .. . ... : ... .. . ... : ... .. . ...
ROW 0A : ... .. . ... ... : ... .. . ... : ... .. . ... : ... .. . ... : ... .. . ... : ... .. . ... : ... .. . ... : ... .. . ...
ROW 0B : ... .. . ... ... : ... .. . ... : ... .. . ... : ... .. . ... : ... .. . ... : ... .. . ... : ... .. . ... : ... .. . ...
ROW 0C : C#3 0A . ... ... : B-1 0A . ... : ... .. . ... : B-# 04 5 ... : ... .. . ... : ... .. . ... : ... .. . ... : G#1 08 . ...
ROW 0D : ... .. . ... ... : ... .. . ... : ... .. . ... : ... .. . ... : ... .. . ... : ... .. . ... : ... .. . ... : ... .. . ...
ROW 0E : ... .. . ... ... : ... .. . ... : ... .. . ... : ... .. . ... : ... .. . ... : ... .. . ... : ... .. . ... : ... .. . ...
ROW 0F : ... .. . ... ... : ... .. . ... : ... .. . ... : ... .. . ... : ... .. . ... : ... .. . ... : ... .. . ... : ... .. . ...
ROW 10 : === .. . ... ... : === .. . ... : ... .. . ... : B-# 04 . ... : ... .. . ... : ... .. . ... : ... .. . ... : === .. . ...
ROW 11 : ... .. . ... ... : ... .. . ... : ... .. . ... : ... .. . ... : ... .. . ... : ... .. . ... : ... .. . ... : ... .. . ...
ROW 12 : ... .. . ... ... : ... .. . ... : ... .. . ... : ... .. . ... : ... .. . ... : ... .. . ... : ... .. . ... : ... .. . ...
ROW 13 : ... .. . ... ... : ... .. . ... : ... .. . ... : ... .. . ... : ... .. . ... : ... .. . ... : ... .. . ... : ... .. . ...
ROW 14 : B-2 0A . ... ... : B-1 0A . ... : A-3 07 . ... : 1-# 00 C ... : ... .. . ... : ... .. . ... : ... .. . ... : G#1 08 . ...
ROW 15 : ... .. . ... ... : ... .. . ... : ... .. . ... : ... .. . ... : ... .. . ... : ... .. . ... : ... .. . ... : ... .. . ...
ROW 16 : ... .. . ... ... : ... .. . ... : ... .. . ... : ... .. . ... : ... .. . ... : ... .. . ... : ... .. . ... : ... .. . ...
ROW 17 : ... .. . ... ... : ... .. . ... : ... .. . ... : ... .. . ... : ... .. . ... : ... .. . ... : ... .. . ... : ... .. . ...
ROW 18 : === .. . ... ... : === .. . ... : ... .. . ... : 7-# 01 . ... : ... .. . ... : ... .. . ... : ... .. . ... : === .. . ...
ROW 19 : ... .. . ... ... : ... .. . ... : ... .. . ... : ... .. . ... : ... .. . ... : ... .. . ... : ... .. . ... : ... .. . ...
ROW 1A : ... .. . ... ... : ... .. . ... : ... .. . ... : ... .. . ... : ... .. . ... : ... .. . ... : ... .. . ... : ... .. . ...
ROW 1B : ... .. . ... ... : ... .. . ... : ... .. . ... : ... .. . ... : ... .. . ... : ... .. . ... : ... .. . ... : ... .. . ...
ROW 1C : D#3 0A . ... ... : B-1 0A . ... : A-4 07 . ... : 1-# 00 . ... : ... .. . ... : ... .. . ... : ... .. . ... : G#1 08 . ...
ROW 1D : ... .. . ... ... : ... .. . ... : ... .. . ... : ... .. . ... : ... .. . ... : ... .. . ... : ... .. . ... : ... .. . ...
ROW 1E : ... .. . ... ... : ... .. . ... : ... .. . ... : ... .. . ... : ... .. . ... : ... .. . ... : ... .. . ... : ... .. . ...
ROW 1F : ... .. . ... ... : ... .. . ... : ... .. . ... : ... .. . ... : ... .. . ... : ... .. . ... : ... .. . ... : ... .. . ...

PATTERN 04
ROW 00 : ... .. . ... ... : C#2 0A C ... : A-3 07 . ... : B-# 04 5 ... : ... .. . ... : ... .. . ... : F-3 0B 9 482 : E-1 08 F ...
ROW 01 : ... .. . ... ... : ... .. . ... : ... .. . ... : ... .. . ... : ... .. . ... : ... .. . ... : ... .. . ... : ... .. . ...
ROW 02 : ... .. . ... ... : ... .. . ... : ... .. . ... : ... .. . ... : ... .. . ... : ... .. . ... : ... .. . ... : ... .. . ...
ROW 03 : ... .. . ... ... : ... .. . ... : ... .. . ... : ... .. . ... : ... .. . ... : ... .. . ... : ... .. . ... : ... .. . ...
ROW 04 : ... .. . ... ... : C#2 0A . ... : ... .. . ... : 1-# 00 C ... : ... .. . ... : ... .. . ... : ... .. . ... : E-1 08 . ...
ROW 05 : ... .. . ... ... : ... .. . ... : ... .. . ... : ... .. . ... : ... .. . ... : ... .. . ... : ... .. . ... : ... .. . ...
ROW 06 : ... .. . ... ... : ... .. . ... : ... .. . ... : ... .. . ... : ... .. . ... : ... .. . ... : ... .. . ... : ... .. . ...
ROW 07 : ... .. . 481 ... : ... .. . ... : ... .. . ... : ... .. . ... : ... .. . ... : ... .. . ... : ... .. . ... : ... .. . ...
ROW 08 : ... .. . 482 ... : === .. . ... : A-4 07 . ... : 7-# 01 . ... : ... .. . ... : ... .. . ... : ... .. . ... : === .. . ...
ROW 09 : ... .. . ... ... : ... .. . ... : ... .. . ... : ... .. . ... : ... .. . ... : ... .. . ... : ... .. . ... : ... .. . ...
ROW 0A : ... .. . ... ... : ... .. . ... : ... .. . ... : ... .. . ... : ... .. . ... : ... .. . ... : ... .. . ... : ... .. . ...
ROW 0B : ... .. . ... ... : ... .. . ... : ... .. . ... : ... .. . ... : ... .. . ... : ... .. . ... : ... .. . ... : ... .. . ...
ROW 0C : G#3 0C . V00 400 : C#2 0A . ... : ... .. . ... : B-# 04 5 ... : ... .. . ... : ... .. . ... : ... .. . ... : E-1 08 . ...
ROW 0D : ... .. . ... ... : ... .. . ... : ... .. . ... : ... .. . ... : ... .. . ... : ... .. . ... : ... .. . ... : ... .. . ...
ROW 0E : G#3 0C . ... ... : ... .. . ... : A-4 07 . ... : ... .. . ... : ... .. . ... : ... .. . ... : ... .. . ... : ... .. . ...
ROW 0F : ... .. . ... ... : ... .. . ... : ... .. . ... : ... .. . ... : ... .. . ... : ... .. . ... : ... .. . ... : ... .. . ...
ROW 10 : --- .. . ... ... : === .. . ... : ... .. . ... : B-# 04 . ... : ... .. . ... : ... .. . ... : ... .. . ... : === .. . ...
ROW 11 : ... .. . ... ... : ... .. . ... : ... .. . ... : ... .. . ... : ... .. . ... : ... .. . ... : ... .. . ... : ... .. . ...
ROW 12 : ... .. . ... ... : ... .. . ... : ... .. . ... : ... .. . ... : ... .. . ... : ... .. . ... : ... .. . ... : ... .. . ...
ROW 13 : ... .. . ... ... : ... .. . ... : ... .. . ... : ... .. . ... : ... .. . ... : ... .. . ... : ... .. . ... : ... .. . ...
ROW 14 : ... .. . ... ... : C#2 0A . ... : A-3 07 . ... : 1-# 00 C ... : ... .. . ... : ... .. . ... : ... .. . ... : E-1 08 . ...
ROW 15 : ... .. . ... ... : ... .. . ... : ... .. . ... : ... .. . ... : ... .. . ... : ... .. . ... : ... .. . ... : ... .. . ...
ROW 16 : ... .. . ... ... : ... .. . ... : ... .. . ... : ... .. . ... : ... .. . ... : ... .. . ... : ... .. . ... : ... .. . ...
ROW 17 : ... .. . ... ... : ... .. . ... : ... .. . ... : ... .. . ... : ... .. . ... : ... .. . ... : ... .. . ... : ... .. . ...
ROW 18 : G#2 0A . ... ... : === .. . ... : ... .. . ... : 7-# 01 . ... : ... .. . ... : ... .. . ... : ... .. . ... : === .. . ...
ROW 19 : ... .. . ... ... : ... .. . ... : ... .. . ... : ... .. . ... : ... .. . ... : ... .. . ... : ... .. . ... : ... .. . ...
ROW 1A : ... .. . ... ... : ... .. . ... : ... .. . ... : ... .. . ... : ... .. . ... : ... .. . ... : ... .. . ... : ... .. . ...
ROW 1B : ... .. . ... ... : ... .. . ... : ... .. . ... : ... .. . ... : ... .. . ... : ... .. . ... : ... .. . ... : ... .. . ...
ROW 1C : B-2 0A . ... ... : C#2 0A . ... : A-4 07 . ... : 1-# 00 . ... : ... .. . ... : ... .. . ... : ... .. . ... : E-1 08 . ...
ROW 1D : ... .. . ... ... : ... .. . ... : ... .. . ... : ... .. . ... : ... .. . ... : ... .. . ... : ... .. . ... : ... .. . ...
ROW 1E : ... .. . ... ... : ... .. . ... : ... .. . ... : ... .. . ... : ... .. . ... : ... .. . ... : ... .. . ... : ... .. . ...
ROW 1F : ... .. . ... ... : ... .. . ... : ... .. . ... : ... .. . ... : ... .. . ... : ... .. . ... : ... .. . ... : ... .. . ...

PATTERN 05
ROW 00 : D#3 0A . ... ... : ... .. . ... : ... .. . ... : ... .. . ... : ... .. . ... : ... .. . ... : ... .. . ... : F#1 08 . ...
ROW 01 : ... .. . ... ... : ... .. . ... : ... .. . ... : ... .. . ... : ... .. . ... : ... .. . ... : ... .. . ... : ... .. . ...
ROW 02 : ... .. . ... ... : ... .. . ... : ... .. . ... : ... .. . ... : ... .. . ... : ... .. . ... : ... .. . ... : ... .. . ...
ROW 03 : ... .. . ... ... : ... .. . ... : ... .. . ... : ... .. . ... : ... .. . ... : ... .. . ... : ... .. . ... : ... .. . ...
ROW 04 : C#3 0A . ... ... : ... .. . ... : ... .. . ... : ... .. . ... : ... .. . ... : ... .. . ... : ... .. . ... : F#1 08 . ...
ROW 05 : ... .. . ... ... : ... .. . ... : ... .. . ... : ... .. . ... : ... .. . ... : ... .. . ... : ... .. . ... : ... .. . ...
ROW 06 : ... .. . ... ... : ... .. . ... : ... .. . ... : ... .. . ... : ... .. . ... : ... .. . ... : ... .. . ... : ... .. . ...
ROW 07 : ... .. . ... ... : ... .. . ... : ... .. . ... : ... .. . ... : ... .. . ... : ... .. . ... : ... .. . ... : ... .. . ...
ROW 08 : D#3 0A . ... ... : ... .. . ... : ... .. . ... : ... .. . ... : ... .. . ... : ... .. . ... : ... .. . ... : === .. . ...
ROW 09 : ... .. . ... ... : ... .. . ... : ... .. . ... : ... .. . ... : ... .. . ... : ... .. . ... : ... .. . ... : ... .. . ...
ROW 0A : ... .. . ... ... : ... .. . ... : ... .. . ... : ... .. . ... : ... .. . ... : ... .. . ... : ... .. . ... : ... .. . ...
ROW 0B : ... .. . ... ... : ... .. . ... : ... .. . ... : ... .. . ... : ... .. . ... : ... .. . ... : ... .. . ... : ... .. . ...
ROW 0C : C#3 0A . ... ... : ... .. . ... : ... .. . ... : ... .. . ... : ... .. . ... : ... .. . ... : ... .. . ... : F#1 08 . ...
ROW 0D : ... .. . ... ... : ... .. . ... : ... .. . ... : ... .. . ... : ... .. . ... : ... .. . ... : ... .. . ... : ... .. . ...
ROW 0E : ... .. . ... ... : ... .. . ... : ... .. . ... : ... .. . ... : ... .. . ... : ... .. . ... : ... .. . ... : ... .. . ...
ROW 0F : ... .. . ... ... : ... .. . ... : ... .. . ... : ... .. . ... : ... .. . ... : ... .. . ... : ... .. . ... : ... .. . ...
ROW 10 : === .. . ... ... : ... .. . ... : ... .. . ... : ... .. . ... : ... .. . ... : ... .. . ... : ... .. . ... : === .. . ...
ROW 11 : ... .. . ... ... : ... .. . ... : ... .. . ... : ... .. . ... : ... .. . ... : ... .. . ... : ... .. . ... : ... .. . ...
ROW 12 : ... .. . ... ... : ... .. . ... : ... .. . ... : ... .. . ... : ... .. . ... : ... .. . ... : ... .. . ... : ... .. . ...
ROW 13 : ... .. . ... ... : ... .. . ... : ... .. . ... : ... .. . ... : ... .. . ... : ... .. . ... : ... .. . ... : ... .. . ...
ROW 14 : F#3 0A . ... ... : ... .. . ... : ... .. . ... : ... .. . ... : ... .. . ... : ... .. . ... : ... .. . ... : F#1 08 . ...
ROW 15 : ... .. . ... ... : ... .. . ... : ... .. . ... : ... .. . ... : ... .. . ... : ... .. . ... : ... .. . ... : ... .. . ...
ROW 16 : ... .. . ... ... : ... .. . ... : ... .. . ... : ... .. . ... : ... .. . ... : ... .. . ... : ... .. . ... : ... .. . ...
ROW 17 : ... .. . ... ... : ... .. . ... : ... .. . ... : ... .. . ... : ... .. . ... : ... .. . ... : ... .. . ... : ... .. . ...
ROW 18 : === .. . ... ... : ... .. . ... : ... .. . ... : ... .. . ... : ... .. . ... : ... .. . ... : ... .. . ... : === .. . ...
ROW 19 : ... .. . ... ... : ... .. . ... : ... .. . ... : ... .. . ... : ... .. . ... : ... .. . ... : ... .. . ... : ... .. . ...
ROW 1A : ... .. . ... ... : ... .. . ... : ... .. . ... : ... .. . ... : ... .. . ... : ... .. . ... : ... .. . ... : ... .. . ...
ROW 1B : ... .. . ... ... : ... .. . ... : ... .. . ... : ... .. . ... : ... .. . ... : ... .. . ... : ... .. . ... : ... .. . ...
ROW 1C : D#3 0A . ... ... : ... .. . ... : ... .. . ... : ... .. . ... : ... .. . ... : ... .. . ... : ... .. . ... : F#1 08 . ...
ROW 1D : ... .. . ... ... : ... .. . ... : ... .. . ... : ... .. . ... : ... .. . ... : ... .. . ... : ... .. . ... : ... .. . ...
ROW 1E : ... .. . ... ... : ... .. . ... : ... .. . ... : ... .. . ... : ... .. . ... : ... .. . ... : ... .. . ... : ... .. . ...
ROW 1F : ... .. . ... ... : ... .. . ... : ... .. . ... : ... .. . ... : ... .. . ... : ... .. . ... : ... .. . ... : ... .. . ...

PATTERN 06
ROW 00 : D#3 0A . ... ... : ... .. . ... : ... .. . ... : ... .. . ... : ... .. . ... : ... .. . ... : D#3 0B 9 482 : ... .. . ...
ROW 01 : ... .. . ... ... : ... .. . ... : ... .. . ... : ... .. . ... : ... .. . ... : ... .. . ... : ... .. . ... : ... .. . ...
ROW 02 : ... .. . ... ... : ... .. . ... : ... .. . ... : ... .. . ... : ... .. . ... : ... .. . ... : ... .. . ... : ... .. . ...
ROW 03 : ... .. . ... ... : ... .. . ... : ... .. . ... : ... .. . ... : ... .. . ... : ... .. . ... : ... .. . ... : ... .. . ...
ROW 04 : C#3 0A . ... ... : ... .. . ... : ... .. . ... : ... .. . ... : ... .. . ... : ... .. . ... : ... .. . ... : ... .. . ...
ROW 05 : ... .. . ... ... : ... .. . ... : ... .. . ... : ... .. . ... : ... .. . ... : ... .. . ... : ... .. . ... : ... .. . ...
ROW 06 : ... .. . ... ... : ... .. . ... : ... .. . ... : ... .. . ... : ... .. . ... : ... .. . ... : ... .. . ... : ... .. . ...
ROW 07 : ... .. . ... ... : ... .. . ... : ... .. . ... : ... .. . ... : ... .. . ... : ... .. . ... : ... .. . ... : ... .. . ...
ROW 08 : D#3 0A . ... ... : ... .. . ... : ... .. . ... : ... .. . ... : ... .. . ... : ... .. . ... : ... .. . ... : ... .. . ...
ROW 09 : ... .. . ... ... : ... .. . ... : ... .. . ... : ... .. . ... : ... .. . ... : ... .. . ... : ... .. . ... : ... .. . ...
ROW 0A : ... .. . ... ... : ... .. . ... : ... .. . ... : ... .. . ... : ... .. . ... : ... .. . ... : ... .. . ... : ... .. . ...
ROW 0B : ... .. . ... ... : ... .. . ... : ... .. . ... : ... .. . ... : ... .. . ... : ... .. . ... : ... .. . ... : ... .. . ...
ROW 0C : C#3 0A . ... ... : ... .. . ... : ... .. . ... : ... .. . ... : ... .. . ... : ... .. . ... : ... .. . ... : ... .. . ...
ROW 0D : ... .. . ... ... : ... .. . ... : ... .. . ... : ... .. . ... : ... .. . ... : ... .. . ... : ... .. . ... : ... .. . ...
ROW 0E : ... .. . ... ... : ... .. . ... : ... .. . ... : ... .. . ... : ... .. . ... : ... .. . ... : ... .. . ... : ... .. . ...
ROW 0F : ... .. . ... ... : ... .. . ... : ... .. . ... : ... .. . ... : ... .. . ... : ... .. . ... : ... .. . ... : ... .. . ...
ROW 10 : === .. . ... ... : ... .. . ... : ... .. . ... : ... .. . ... : ... .. . ... : ... .. . ... : ... .. . ... : ... .. . ...
ROW 11 : ... .. . ... ... : ... .. . ... : ... .. . ... : ... .. . ... : ... .. . ... : ... .. . ... : ... .. . ... : ... .. . ...
ROW 12 : ... .. . ... ... : ... .. . ... : ... .. . ... : ... .. . ... : ... .. . ... : ... .. . ... : ... .. . ... : ... .. . ...
ROW 13 : ... .. . ... ... : ... .. . ... : ... .. . ... : ... .. . ... : ... .. . ... : ... .. . ... : ... .. . ... : ... .. . ...
ROW 14 : D#3 0A . ... ... : ... .. . ... : ... .. . ... : ... .. . ... : ... .. . ... : ... .. . ... : ... .. . ... : ... .. . ...
ROW 15 : ... .. . ... ... : ... .. . ... : ... .. . ... : ... .. . ... : ... .. . ... : ... .. . ... : ... .. . ... : ... .. . ...
ROW 16 : ... .. . ... ... : ... .. . ... : ... .. . ... : ... .. . ... : ... .. . ... : ... .. . ... : ... .. . ... : ... .. . ...
ROW 17 : ... .. . ... ... : ... .. . ... : ... .. . ... : ... .. . ... : ... .. . ... : ... .. . ... : ... .. . ... : ... .. . ...
ROW 18 : === .. . ... ... : ... .. . ... : ... .. . ... : ... .. . ... : ... .. . ... : ... .. . ... : ... .. . ... : ... .. . ...
ROW 19 : ... .. . ... ... : ... .. . ... : ... .. . ... : ... .. . ... : ... .. . ... : ... .. . ... : ... .. . ... : ... .. . ...
ROW 1A : ... .. . ... ... : ... .. . ... : ... .. . ... : ... .. . ... : ... .. . ... : ... .. . ... : ... .. . ... : ... .. . ...
ROW 1B : ... .. . ... ... : ... .. . ... : ... .. . ... : ... .. . ... : ... .. . ... : ... .. . ... : ... .. . ... : ... .. . ...
ROW 1C : C#3 0A . ... ... : ... .. . ... : ... .. . ... : ... .. . ... : ... .. . ... : ... .. . ... : ... .. . ... : ... .. . ...
ROW 1D : ... .. . ... ... : ... .. . ... : ... .. . ... : ... .. . ... : ... .. . ... : ... .. . ... : ... .. . ... : ... .. . ...
ROW 1E : ... .. . ... ... : ... .. . ... : ... .. . ... : ... .. . ... : ... .. . ... : ... .. . ... : ... .. . ... : ... .. . ...
ROW 1F : ... .. . ... ... : ... .. . ... : ... .. . ... : ... .. . ... : ... .. . ... : ... .. . ... : ... .. . ... : ... .. . ...

PATTERN 07
ROW 00 : ... .. . ... ... : ... .. . ... : ... .. . ... : ... .. . ... : ... .. . ... : ... .. . ... : ... .. . ... : ... .. . ...
ROW 01 : ... .. . ... ... : ... .. . ... : ... .. . ... : ... .. . ... : ... .. . ... : ... .. . ... : ... .. . ... : ... .. . ...
ROW 02 : ... .. . ... ... : ... .. . ... : ... .. . ... : ... .. . ... : ... .. . ... : ... .. . ... : ... .. . ... : ... .. . ...
ROW 03 : ... .. . ... ... : ... .. . ... : ... .. . ... : ... .. . ... : ... .. . ... : ... .. . ... : ... .. . ... : ... .. . ...
ROW 04 : ... .. . ... ... : ... .. . ... : ... .. . ... : ... .. . ... : ... .. . ... : ... .. . ... : ... .. . ... : ... .. . ...
ROW 05 : ... .. . ... ... : ... .. . ... : ... .. . ... : ... .. . ... : ... .. . ... : ... .. . ... : ... .. . ... : ... .. . ...
ROW 06 : ... .. . ... ... : ... .. . ... : ... .. . ... : ... .. . ... : ... .. . ... : ... .. . ... : ... .. . ... : ... .. . ...
ROW 07 : ... .. . ... ... : ... .. . ... : ... .. . ... : ... .. . ... : ... .. . ... : ... .. . ... : ... .. . ... : ... .. . ...
ROW 08 : B-2 0A . ... ... : ... .. . ... : ... .. . ... : ... .. . ... : ... .. . ... : ... .. . ... : ... .. . ... : ... .. . ...
ROW 09 : ... .. . ... ... : ... .. . ... : ... .. . ... : ... .. . ... : ... .. . ... : ... .. . ... : ... .. . ... : ... .. . ...
ROW 0A : ... .. . ... ... : ... .. . ... : ... .. . ... : ... .. . ... : ... .. . ... : ... .. . ... : ... .. . ... : ... .. . ...
ROW 0B : ... .. . ... ... : ... .. . ... : ... .. . ... : ... .. . ... : ... .. . ... : ... .. . ... : ... .. . ... : ... .. . ...
ROW 0C : G#3 0C . V00 ... : ... .. . ... : ... .. . ... : ... .. . ... : ... .. . ... : ... .. . ... : ... .. . ... : ... .. . ...
ROW 0D : ... .. . ... ... : ... .. . ... : ... .. . ... : ... .. . ... : ... .. . ... : ... .. . ... : ... .. . ... : ... .. . ...
ROW 0E : G#3 0C . ... ... : ... .. . ... : ... .. . ... : ... .. . ... : ... .. . ... : ... .. . ... : ... .. . ... : ... .. . ...
ROW 0F : ... .. . ... ... : ... .. . ... : ... .. . ... : ... .. . ... : ... .. . ... : ... .. . ... : === .. . ... : ... .. . ...
ROW 10 : C#3 0A . ... ... : ... .. . ... : ... .. . ... : ... .. . ... : ... .. . ... : ... .. . ... : ... .. . 400 : ... .. . ...
ROW 11 : ... .. . ... ... : ... .. . ... : ... .. . ... : ... .. . ... : ... .. . ... : ... .. . ... : ... .. . ... : ... .. . ...
ROW 12 : ... .. . ... ... : ... .. . ... : ... .. . ... : ... .. . ... : ... .. . ... : ... .. . ... : ... .. . ... : ... .. . ...
ROW 13 : ... .. . ... ... : ... .. . ... : ... .. . ... : ... .. . ... : ... .. . ... : ... .. . ... : ... .. . ... : ... .. . ...
ROW 14 : ... .. . ... ... : ... .. . ... : ... .. . ... : ... .. . ... : ... .. . ... : ... .. . ... : ... .. . ... : ... .. . ...
ROW 15 : ... .. . ... ... : ... .. . ... : ... .. . ... : ... .. . ... : ... .. . ... : ... .. . ... : ... .. . ... : ... .. . ...
ROW 16 : ... .. . ... ... : ... .. . ... : ... .. . ... : ... .. . ... : ... .. . ... : ... .. . ... : ... .. . ... : ... .. . ...
ROW 17 : ... .. . ... ... : ... .. . ... : ... .. . ... : ... .. . ... : ... .. . ... : ... .. . ... : ... .. . ... : ... .. . ...
ROW 18 : D#3 0A . ... ... : ... .. . ... : ... .. . ... : ... .. . ... : ... .. . ... : G#3 08 A ... : ... .. . ... : ... .. . ...
ROW 19 : ... .. . ... ... : ... .. . ... : ... .. . ... : ... .. . ... : ... .. . ... : ... .. . ... : ... .. . ... : ... .. . ...
ROW 1A : ... .. . ... ... : ... .. . ... : ... .. . ... : ... .. . ... : ... .. . ... : ... .. . ... : ... .. . ... : ... .. . ...
ROW 1B : ... .. . ... ... : ... .. . ... : ... .. . ... : ... .. . ... : ... .. . ... : ... .. . ... : ... .. . ... : ... .. . ...
ROW 1C : ... .. . ... ... : ... .. . ... : ... .. . ... : ... .. . ... : ... .. . ... : B-3 08 . ... : ... .. . ... : ... .. . ...
ROW 1D : ... .. . ... ... : ... .. . ... : ... .. . ... : ... .. . ... : ... .. . ... : ... .. . ... : ... .. . ... : ... .. . ...
ROW 1E : ... .. . ... ... : ... .. . ... : ... .. . ... : ... .. . ... : ... .. . ... : ... .. . ... : ... .. . ... : ... .. . ...
ROW 1F : ... .. . ... ... : ... .. . ... : ... .. . ... : ... .. . ... : ... .. . ... : ... .. . ... : ... .. . ... : ... .. . ...

PATTERN 08
ROW 00 : B-2 0A . ... ... : ... .. . ... : ... .. . ... : ... .. . ... : ... .. . ... : D#4 08 . ... : G#3 0B 9 482 : ... .. . ...
ROW 01 : ... .. . ... ... : ... .. . ... : ... .. . ... : ... .. . ... : ... .. . ... : ... .. . ... : ... .. . ... : ... .. . ...
ROW 02 : ... .. . ... ... : ... .. . ... : ... .. . ... : ... .. . ... : ... .. . ... : ... .. . ... : ... .. . ... : ... .. . ...
ROW 03 : ... .. . ... ... : ... .. . ... : ... .. . ... : ... .. . ... : ... .. . ... : ... .. . ... : ... .. . ... : ... .. . ...
ROW 04 : ... .. . ... ... : ... .. . ... : ... .. . ... : ... .. . ... : ... .. . ... : C#4 08 . ... : ... .. . ... : ... .. . ...
ROW 05 : ... .. . ... ... : ... .. . ... : ... .. . ... : ... .. . ... : ... .. . ... : ... .. . ... : ... .. . ... : ... .. . ...
ROW 06 : ... .. . ... ... : ... .. . ... : ... .. . ... : ... .. . ... : ... .. . ... : ... .. . ... : ... .. . ... : ... .. . ...
ROW 07 : ... .. . ... ... : ... .. . ... : ... .. . ... : ... .. . ... : ... .. . ... : ... .. . ... : ... .. . ... : ... .. . ...
ROW 08 : C#3 0A . ... ... : ... .. . ... : ... .. . ... : ... .. . ... : ... .. . ... : D#4 08 . ... : ... .. . ... : ... .. . ...
ROW 09 : ... .. . ... ... : ... .. . ... : ... .. . ... : ... .. . ... : ... .. . ... : ... .. . ... : ... .. . ... : ... .. . ...
ROW 0A : ... .. . ... ... : ... .. . ... : ... .. . ... : ... .. . ... : ... .. . ... : ... .. . ... : ... .. . ... : ... .. . ...
ROW 0B : ... .. . ... ... : ... .. . ... : ... .. . ... : ... .. . ... : ... .. . ... : ... .. . ... : ... .. . ... : ... .. . ...
ROW 0C : G#2 0A . ... ... : ... .. . ... : ... .. . ... : ... .. . ... : ... .. . ... : C#4 08 . ... : ... .. . ... : ... .. . ...
ROW 0D : ... .. . ... ... : ... .. . ... : ... .. . ... : ... .. . ... : ... .. . ... : ... .. . ... : ... .. . ... : ... .. . ...
ROW 0E : ... .. . ... ... : ... .. . ... : ... .. . ... : ... .. . ... : ... .. . ... : ... .. . ... : ... .. . ... : ... .. . ...
ROW 0F : ... .. . ... ... : ... .. . ... : ... .. . ... : ... .. . ... : ... .. . ... : ... .. . ... : ... .. . ... : ... .. . ...
ROW 10 : ... .. . ... ... : ... .. . ... : ... .. . ... : ... .. . ... : ... .. . ... : === .. . ... : ... .. . ... : ... .. . ...
ROW 11 : ... .. . ... ... : ... .. . ... : ... .. . ... : ... .. . ... : ... .. . ... : ... .. . ... : ... .. . ... : ... .. . ...
ROW 12 : ... .. . ... ... : ... .. . ... : ... .. . ... : ... .. . ... : ... .. . ... : ... .. . ... : ... .. . ... : ... .. . ...
ROW 13 : ... .. . 481 ... : ... .. . ... : ... .. . ... : ... .. . ... : ... .. . ... : ... .. . ... : ... .. . ... : ... .. . ...
ROW 14 : ... .. . 482 ... : ... .. . ... : ... .. . ... : ... .. . ... : ... .. . ... : B-3 08 . ... : ... .. . ... : ... .. . ...
ROW 15 : ... .. . ... ... : ... .. . ... : ... .. . ... : ... .. . ... : ... .. . ... : ... .. . ... : ... .. . ... : ... .. . ...
ROW 16 : ... .. . ... ... : ... .. . ... : ... .. . ... : ... .. . ... : ... .. . ... : ... .. . ... : ... .. . ... : ... .. . ...
ROW 17 : ... .. . ... ... : ... .. . ... : ... .. . ... : ... .. . ... : ... .. . ... : ... .. . ... : ... .. . ... : ... .. . ...
ROW 18 : ... .. . ... ... : ... .. . ... : ... .. . ... : ... .. . ... : ... .. . ... : === .. . ... : ... .. . ... : ... .. . ...
ROW 19 : ... .. . ... ... : ... .. . ... : ... .. . ... : ... .. . ... : ... .. . ... : ... .. . ... : ... .. . ... : ... .. . ...
ROW 1A : ... .. . ... ... : ... .. . ... : ... .. . ... : ... .. . ... : ... .. . ... : ... .. . ... : ... .. . ... : ... .. . ...
ROW 1B : ... .. . ... ... : ... .. . ... : ... .. . ... : ... .. . ... : ... .. . ... : ... .. . ... : ... .. . ... : ... .. . ...
ROW 1C : ... .. . ... ... : ... .. . ... : ... .. . ... : ... .. . ... : ... .. . ... : D#4 08 . ... : ... .. . ... : ... .. . ...
ROW 1D : ... .. . ... ... : ... .. . ... : ... .. . ... : ... .. . ... : ... .. . ... : ... .. . ... : ... .. . ... : ... .. . ...
ROW 1E : ... .. . ... ... : ... .. . ... : ... .. . ... : ... .. . ... : ... .. . ... : ... .. . ... : ... .. . ... : ... .. . ...
ROW 1F : ... .. . ... ... : ... .. . ... : ... .. . ... : ... .. . ... : ... .. . ... : ... .. . ... : ... .. . ... : ... .. . ...

PATTERN 09
ROW 00 : ... .. . ... ... : ... .. . ... : ... .. . ... : ... .. . ... : ... .. . ... : ... .. . ... : ... .. . ... : ... .. . ...
ROW 01 : ... .. . ... ... : ... .. . ... : ... .. . ... : ... .. . ... : ... .. . ... : ... .. . ... : ... .. . ... : ... .. . ...
ROW 02 : ... .. . ... ... : ... .. . ... : ... .. . ... : ... .. . ... : ... .. . ... : ... .. . ... : ... .. . ... : ... .. . ...
ROW 03 : ... .. . ... ... : ... .. . ... : ... .. . ... : ... .. . ... : ... .. . ... : ... .. . ... : ... .. . ... : ... .. . ...
ROW 04 : ... .. . ... ... : ... .. . ... : ... .. . ... : ... .. . ... : ... .. . ... : ... .. . ... : ... .. . ... : ... .. . ...
ROW 05 : ... .. . ... ... : ... .. . ... : ... .. . ... : ... .. . ... : ... .. . ... : ... .. . ... : ... .. . ... : ... .. . ...
ROW 06 : ... .. . ... ... : ... .. . ... : ... .. . ... : ... .. . ... : ... .. . ... : ... .. . ... : ... .. . ... : ... .. . ...
ROW 07 : ... .. . ... ... : ... .. . ... : ... .. . ... : ... .. . ... : ... .. . ... : ... .. . 481 : ... .. . ... : ... .. . ...
ROW 08 : ... .. . ... ... : ... .. . ... : ... .. . ... : ... .. . ... : ... .. . ... : ... .. . 482 : ... .. . ... : ... .. . ...
ROW 09 : ... .. . ... ... : ... .. . ... : ... .. . ... : ... .. . ... : ... .. . ... : ... .. . ... : ... .. . ... : ... .. . ...
ROW 0A : ... .. . ... ... : ... .. . ... : ... .. . ... : ... .. . ... : ... .. . ... : ... .. . ... : ... .. . ... : ... .. . ...
ROW 0B : ... .. . ... ... : ... .. . ... : ... .. . ... : ... .. . ... : ... .. . ... : ... .. . ... : ... .. . ... : ... .. . ...
ROW 0C : G#3 0C . V00 400 : ... .. . ... : ... .. . ... : ... .. . ... : ... .. . ... : ... .. . ... : ... .. . ... : ... .. . ...
ROW 0D : ... .. . ... ... : ... .. . ... : ... .. . ... : ... .. . ... : ... .. . ... : ... .. . ... : ... .. . ... : ... .. . ...
ROW 0E : G#3 0C . ... ... : ... .. . ... : ... .. . ... : ... .. . ... : ... .. . ... : ... .. . ... : ... .. . ... : ... .. . ...
ROW 0F : ... .. . ... ... : ... .. . ... : ... .. . ... : ... .. . ... : ... .. . ... : ... .. . ... : ... .. . ... : ... .. . ...
ROW 10 : --- .. . ... ... : ... .. . ... : ... .. . ... : ... .. . ... : ... .. . ... : ... .. . ... : ... .. . ... : ... .. . ...
ROW 11 : ... .. . ... ... : ... .. . ... : ... .. . ... : ... .. . ... : ... .. . ... : ... .. . ... : ... .. . ... : ... .. . ...
ROW 12 : ... .. . ... ... : ... .. . ... : ... .. . ... : ... .. . ... : ... .. . ... : ... .. . ... : ... .. . ... : ... .. . ...
ROW 13 : ... .. . ... ... : ... .. . ... : ... .. . ... : ... .. . ... : ... .. . ... : ... .. . ... : ... .. . ... : ... .. . ...
ROW 14 : ... .. . ... ... : ... .. . ... : ... .. . ... : ... .. . ... : ... .. . ... : === .. . 400 : ... .. . ... : ... .. . ...
ROW 15 : ... .. . ... ... : ... .. . ... : ... .. . ... : ... .. . ... : ... .. . ... : ... .. . ... : ... .. . ... : ... .. . ...
ROW 16 : ... .. . ... ... : ... .. . ... : ... .. . ... : ... .. . ... : ... .. . ... : ... .. . ... : ... .. . ... : ... .. . ...
ROW 17 : ... .. . ... ... : ... .. . ... : ... .. . ... : ... .. . ... : ... .. . ... : ... .. . ... : ... .. . ... : ... .. . ...
ROW 18 : G#2 0A . ... ... : ... .. . ... : ... .. . ... : ... .. . ... : ... .. . ... : G#3 08 . ... : ... .. . ... : ... .. . ...
ROW 19 : ... .. . ... ... : ... .. . ... : ... .. . ... : ... .. . ... : ... .. . ... : ... .. . ... : ... .. . ... : ... .. . ...
ROW 1A : ... .. . ... ... : ... .. . ... : ... .. . ... : ... .. . ... : ... .. . ... : ... .. . ... : ... .. . ... : ... .. . ...
ROW 1B : ... .. . ... ... : ... .. . ... : ... .. . ... : ... .. . ... : ... .. . ... : ... .. . ... : ... .. . ... : ... .. . ...
ROW 1C : B-2 0A . ... ... : ... .. . ... : ... .. . ... : ... .. . ... : ... .. . ... : B-3 08 . ... : ... .. . ... : ... .. . ...
ROW 1D : ... .. . ... ... : ... .. . ... : ... .. . ... : ... .. . ... : ... .. . ... : ... .. . ... : ... .. . ... : ... .. . ...
ROW 1E : ... .. . ... ... : ... .. . ... : ... .. . ... : ... .. . ... : ... .. . ... : ... .. . ... : ... .. . ... : ... .. . ...
ROW 1F : ... .. . ... ... : ... .. . ... : ... .. . ... : ... .. . ... : ... .. . ... : ... .. . ... : ... .. . ... : ... .. . ...

PATTERN 0A
ROW 00 : ... .. . ... ... : ... .. . ... : ... .. . ... : ... .. . ... : ... .. . ... : D#4 08 . ... : F#3 0B 9 482 : ... .. . ...
ROW 01 : ... .. . ... ... : ... .. . ... : ... .. . ... : ... .. . ... : ... .. . ... : ... .. . ... : ... .. . ... : ... .. . ...
ROW 02 : ... .. . ... ... : ... .. . ... : ... .. . ... : ... .. . ... : ... .. . ... : ... .. . ... : ... .. . ... : ... .. . ...
ROW 03 : ... .. . ... ... : ... .. . ... : ... .. . ... : ... .. . ... : ... .. . ... : ... .. . ... : ... .. . ... : ... .. . ...
ROW 04 : ... .. . ... ... : ... .. . ... : ... .. . ... : ... .. . ... : ... .. . ... : C#4 08 . ... : ... .. . ... : ... .. . ...
ROW 05 : ... .. . ... ... : ... .. . ... : ... .. . ... : ... .. . ... : ... .. . ... : ... .. . ... : ... .. . ... : ... .. . ...
ROW 06 : ... .. . ... ... : ... .. . ... : ... .. . ... : ... .. . ... : ... .. . ... : ... .. . ... : ... .. . ... : ... .. . ...
ROW 07 : ... .. . ... ... : ... .. . ... : ... .. . ... : ... .. . ... : ... .. . ... : ... .. . ... : ... .. . ... : ... .. . ...
ROW 08 : B-2 0A . ... ... : ... .. . ... : ... .. . ... : ... .. . ... : ... .. . ... : D#4 08 . ... : ... .. . ... : ... .. . ...
ROW 09 : ... .. . ... ... : ... .. . ... : ... .. . ... : ... .. . ... : ... .. . ... : ... .. . ... : ... .. . ... : ... .. . ...
ROW 0A : ... .. . ... ... : ... .. . ... : ... .. . ... : ... .. . ... : ... .. . ... : ... .. . ... : ... .. . ... : ... .. . ...
ROW 0B : ... .. . ... ... : ... .. . ... : ... .. . ... : ... .. . ... : ... .. . ... : ... .. . ... : ... .. . ... : ... .. . ...
ROW 0C : ... .. . ... ... : ... .. . ... : ... .. . ... : ... .. . ... : ... .. . ... : C#4 08 . ... : ... .. . ... : ... .. . ...
ROW 0D : ... .. . ... ... : ... .. . ... : ... .. . ... : ... .. . ... : ... .. . ... : ... .. . ... : ... .. . ... : ... .. . ...
ROW 0E : ... .. . ... ... : ... .. . ... : ... .. . ... : ... .. . ... : ... .. . ... : ... .. . ... : ... .. . ... : ... .. . ...
ROW 0F : ... .. . ... ... : ... .. . ... : ... .. . ... : ... .. . ... : ... .. . ... : ... .. . ... : ... .. . ... : ... .. . ...
ROW 10 : C#3 0A . ... ... : ... .. . ... : ... .. . ... : ... .. . ... : ... .. . ... : === .. . ... : ... .. . ... : ... .. . ...
ROW 11 : ... .. . ... ... : ... .. . ... : ... .. . ... : ... .. . ... : ... .. . ... : ... .. . ... : ... .. . ... : ... .. . ...
ROW 12 : ... .. . ... ... : ... .. . ... : ... .. . ... : ... .. . ... : ... .. . ... : ... .. . ... : ... .. . ... : ... .. . ...
ROW 13 : ... .. . ... ... : ... .. . ... : ... .. . ... : ... .. . ... : ... .. . ... : ... .. . ... : ... .. . ... : ... .. . ...
ROW 14 : ... .. . ... ... : ... .. . ... : ... .. . ... : ... .. . ... : ... .. . ... : F#4 08 . ... : ... .. . ... : ... .. . ...
ROW 15 : ... .. . ... ... : ... .. . ... : ... .. . ... : ... .. . ... : ... .. . ... : ... .. . ... : ... .. . ... : ... .. . ...
ROW 16 : ... .. . ... ... : ... .. . ... : ... .. . ... : ... .. . ... : ... .. . ... : ... .. . ... : ... .. . ... : ... .. . ...
ROW 17 : ... .. . ... ... : ... .. . ... : ... .. . ... : ... .. . ... : ... .. . ... : ... .. . ... : ... .. . ... : ... .. . ...
ROW 18 : D#3 0A . ... ... : ... .. . ... : ... .. . ... : ... .. . ... : ... .. . ... : === .. . ... : ... .. . ... : ... .. . ...
ROW 19 : ... .. . ... ... : ... .. . ... : ... .. . ... : ... .. . ... : ... .. . ... : ... .. . ... : ... .. . ... : ... .. . ...
ROW 1A : ... .. . ... ... : ... .. . ... : ... .. . ... : ... .. . ... : ... .. . ... : ... .. . ... : ... .. . ... : ... .. . ...
ROW 1B : ... .. . ... ... : ... .. . ... : ... .. . ... : ... .. . ... : ... .. . ... : ... .. . ... : ... .. . ... : ... .. . ...
ROW 1C : ... .. . ... ... : ... .. . ... : ... .. . ... : ... .. . ... : ... .. . ... : D#4 08 . ... : ... .. . ... : ... .. . ...
ROW 1D : ... .. . ... ... : ... .. . ... : ... .. . ... : ... .. . ... : ... .. . ... : ... .. . ... : ... .. . ... : ... .. . ...
ROW 1E : ... .. . ... ... : ... .. . ... : ... .. . ... : ... .. . ... : ... .. . ... : ... .. . ... : ... .. . ... : ... .. . ...
ROW 1F : ... .. . ... ... : ... .. . ... : ... .. . ... : ... .. . ... : ... .. . ... : ... .. . ... : ... .. . ... : ... .. . ...

PATTERN 0B
ROW 00 : D#3 0A . ... ... : ... .. . ... : ... .. . ... : ... .. . ... : ... .. . ... : D#4 08 . ... : ... .. . ... : ... .. . ...
ROW 01 : ... .. . ... ... : ... .. . ... : ... .. . ... : ... .. . ... : ... .. . ... : ... .. . ... : ... .. . ... : ... .. . ...
ROW 02 : ... .. . ... ... : ... .. . ... : ... .. . ... : ... .. . ... : ... .. . ... : ... .. . ... : ... .. . ... : ... .. . ...
ROW 03 : ... .. . ... ... : ... .. . ... : ... .. . ... : ... .. . ... : ... .. . ... : ... .. . ... : ... .. . ... : ... .. . ...
ROW 04 : C#3 0A . ... ... : ... .. . ... : ... .. . ... : ... .. . ... : ... .. . ... : C#4 08 . ... : ... .. . ... : ... .. . ...
ROW 05 : ... .. . ... ... : ... .. . ... : ... .. . ... : ... .. . ... : ... .. . ... : ... .. . ... : ... .. . ... : ... .. . ...
ROW 06 : ... .. . ... ... : ... .. . ... : ... .. . ... : ... .. . ... : ... .. . ... : ... .. . ... : ... .. . ... : ... .. . ...
ROW 07 : ... .. . ... ... : ... .. . ... : ... .. . ... : ... .. . ... : ... .. . ... : ... .. . ... : ... .. . ... : ... .. . ...
ROW 08 : D#3 0A . ... ... : ... .. . ... : ... .. . ... : ... .. . ... : ... .. . ... : D#4 08 . ... : ... .. . ... : ... .. . ...
ROW 09 : ... .. . ... ... : ... .. . ... : ... .. . ... : ... .. . ... : ... .. . ... : ... .. . ... : ... .. . ... : ... .. . ...
ROW 0A : ... .. . ... ... : ... .. . ... : ... .. . ... : ... .. . ... : ... .. . ... : ... .. . ... : ... .. . ... : ... .. . ...
ROW 0B : ... .. . ... ... : ... .. . ... : ... .. . ... : ... .. . ... : ... .. . ... : ... .. . ... : ... .. . ... : ... .. . ...
ROW 0C : C#3 0A . ... ... : ... .. . ... : ... .. . ... : ... .. . ... : ... .. . ... : C#4 08 . ... : ... .. . ... : ... .. . ...
ROW 0D : ... .. . ... ... : ... .. . ... : ... .. . ... : ... .. . ... : ... .. . ... : ... .. . ... : ... .. . ... : ... .. . ...
ROW 0E : ... .. . ... ... : ... .. . ... : ... .. . ... : ... .. . ... : ... .. . ... : ... .. . ... : ... .. . ... : ... .. . ...
ROW 0F : ... .. . ... ... : ... .. . ... : ... .. . ... : ... .. . ... : ... .. . ... : ... .. . ... : ... .. . ... : ... .. . ...
ROW 10 : === .. . ... ... : ... .. . ... : ... .. . ... : ... .. . ... : ... .. . ... : === .. . ... : ... .. . ... : ... .. . ...
ROW 11 : ... .. . ... ... : ... .. . ... : ... .. . ... : ... .. . ... : ... .. . ... : ... .. . ... : ... .. . ... : ... .. . ...
ROW 12 : ... .. . ... ... : ... .. . ... : ... .. . ... : ... .. . ... : ... .. . ... : ... .. . ... : ... .. . ... : ... .. . ...
ROW 13 : ... .. . ... ... : ... .. . ... : ... .. . ... : ... .. . ... : ... .. . ... : ... .. . ... : ... .. . ... : ... .. . ...
ROW 14 : D#3 0A . ... ... : ... .. . ... : ... .. . ... : ... .. . ... : ... .. . ... : D#4 08 . ... : ... .. . ... : ... .. . ...
ROW 15 : ... .. . ... ... : ... .. . ... : ... .. . ... : ... .. . ... : ... .. . ... : ... .. . ... : ... .. . ... : ... .. . ...
ROW 16 : ... .. . ... ... : ... .. . ... : ... .. . ... : ... .. . ... : ... .. . ... : ... .. . ... : ... .. . ... : ... .. . ...
ROW 17 : ... .. . ... ... : ... .. . ... : ... .. . ... : ... .. . ... : ... .. . ... : ... .. . ... : ... .. . ... : ... .. . ...
ROW 18 : === .. . ... ... : ... .. . ... : ... .. . ... : ... .. . ... : ... .. . ... : === .. . ... : ... .. . ... : ... .. . ...
ROW 19 : ... .. . ... ... : ... .. . ... : ... .. . ... : ... .. . ... : ... .. . ... : ... .. . ... : ... .. . ... : ... .. . ...
ROW 1A : ... .. . ... ... : ... .. . ... : ... .. . ... : ... .. . ... : ... .. . ... : ... .. . ... : ... .. . ... : ... .. . ...
ROW 1B : ... .. . ... ... : ... .. . ... : ... .. . ... : ... .. . ... : ... .. . ... : ... .. . ... : ... .. . ... : ... .. . ...
ROW 1C : F#3 0A . ... ... : ... .. . ... : ... .. . ... : ... .. . ... : ... .. . ... : C#4 08 . ... : ... .. . ... : ... .. . ...
ROW 1D : ... .. . ... ... : ... .. . ... : ... .. . ... : ... .. . ... : ... .. . ... : ... .. . ... : ... .. . ... : ... .. . ...
ROW 1E : ... .. . ... ... : ... .. . ... : ... .. . ... : ... .. . ... : ... .. . ... : ... .. . ... : ... .. . ... : ... .. . ...
ROW 1F : ... .. . ... ... : ... .. . ... : ... .. . ... : ... .. . ... : ... .. . ... : ... .. . ... : ... .. . ... : ... .. . ...

PATTERN 0C
ROW 00 : ... .. . ... ... : ... .. . ... : ... .. . ... : ... .. . ... : ... .. . ... : ... .. . ... : F-3 0B 9 482 : ... .. . ...
ROW 01 : ... .. . ... ... : ... .. . ... : ... .. . ... : ... .. . ... : ... .. . ... : ... .. . ... : ... .. . ... : ... .. . ...
ROW 02 : ... .. . ... ... : ... .. . ... : ... .. . ... : ... .. . ... : ... .. . ... : ... .. . ... : ... .. . ... : ... .. . ...
ROW 03 : ... .. . ... ... : ... .. . ... : ... .. . ... : ... .. . ... : ... .. . ... : ... .. . ... : ... .. . ... : ... .. . ...
ROW 04 : ... .. . ... ... : ... .. . ... : ... .. . ... : ... .. . ... : ... .. . ... : ... .. . ... : ... .. . ... : ... .. . ...
ROW 05 : ... .. . ... ... : ... .. . ... : ... .. . ... : ... .. . ... : ... .. . ... : ... .. . ... : ... .. . ... : ... .. . ...
ROW 06 : ... .. . ... ... : ... .. . ... : ... .. . ... : ... .. . ... : ... .. . ... : ... .. . ... : ... .. . ... : ... .. . ...
ROW 07 : ... .. . ... ... : ... .. . ... : ... .. . ... : ... .. . ... : ... .. . ... : ... .. . ... : ... .. . ... : ... .. . ...
ROW 08 : D#3 0A . ... ... : ... .. . ... : ... .. . ... : ... .. . ... : ... .. . ... : B-3 08 . ... : ... .. . ... : ... .. . ...
ROW 09 : ... .. . ... ... : ... .. . ... : ... .. . ... : ... .. . ... : ... .. . ... : ... .. . ... : ... .. . ... : ... .. . ...
ROW 0A : ... .. . ... ... : ... .. . ... : ... .. . ... : ... .. . ... : ... .. . ... : ... .. . ... : ... .. . ... : ... .. . ...
ROW 0B : ... .. . ... ... : ... .. . ... : ... .. . ... : ... .. . ... : ... .. . ... : ... .. . ... : ... .. . ... : ... .. . ...
ROW 0C : G#3 0C . V00 ... : ... .. . ... : ... .. . ... : ... .. . ... : ... .. . ... : ... .. . ... : ... .. . ... : ... .. . ...
ROW 0D : ... .. . ... ... : ... .. . ... : ... .. . ... : ... .. . ... : ... .. . ... : ... .. . ... : ... .. . ... : ... .. . ...
ROW 0E : G#3 0C . ... ... : ... .. . ... : ... .. . ... : ... .. . ... : ... .. . ... : ... .. . ... : ... .. . ... : ... .. . ...
ROW 0F : ... .. . ... ... : ... .. . ... : ... .. . ... : ... .. . ... : ... .. . ... : ... .. . ... : ... .. . ... : ... .. . ...
ROW 10 : C#3 0A . ... ... : ... .. . ... : ... .. . ... : ... .. . ... : ... .. . ... : C#4 08 . ... : ... .. . ... : ... .. . ...
ROW 11 : ... .. . ... ... : ... .. . ... : ... .. . ... : ... .. . ... : ... .. . ... : ... .. . ... : ... .. . ... : ... .. . ...
ROW 12 : ... .. . ... ... : ... .. . ... : ... .. . ... : ... .. . ... : ... .. . ... : ... .. . ... : ... .. . ... : ... .. . ...
ROW 13 : ... .. . ... ... : ... .. . ... : ... .. . ... : ... .. . ... : ... .. . ... : ... .. . ... : ... .. . ... : ... .. . ...
ROW 14 : ... .. . ... ... : ... .. . ... : ... .. . ... : ... .. . ... : ... .. . ... : ... .. . ... : ... .. . ... : ... .. . ...
ROW 15 : ... .. . ... ... : ... .. . ... : ... .. . ... : ... .. . ... : ... .. . ... : ... .. . ... : ... .. . ... : ... .. . ...
ROW 16 : ... .. . ... ... : ... .. . ... : ... .. . ... : ... .. . ... : ... .. . ... : ... .. . ... : ... .. . ... : ... .. . ...
ROW 17 : ... .. . ... ... : ... .. . ... : ... .. . ... : ... .. . ... : ... .. . ... : ... .. . ... : ... .. . ... : ... .. . ...
ROW 18 : D#3 0A . ... ... : ... .. . ... : ... .. . ... : ... .. . ... : ... .. . ... : D#4 08 . ... : ... .. . ... : ... .. . ...
ROW 19 : ... .. . ... ... : ... .. . ... : ... .. . ... : ... .. . ... : ... .. . ... : ... .. . ... : ... .. . ... : ... .. . ...
ROW 1A : ... .. . ... ... : ... .. . ... : ... .. . ... : ... .. . ... : ... .. . ... : ... .. . ... : ... .. . ... : ... .. . ...
ROW 1B : ... .. . ... ... : ... .. . ... : ... .. . ... : ... .. . ... : ... .. . ... : ... .. . ... : ... .. . ... : ... .. . ...
ROW 1C : ... .. . ... ... : ... .. . ... : ... .. . ... : ... .. . ... : ... .. . ... : ... .. . ... : ... .. . ... : ... .. . ...
ROW 1D : ... .. . ... ... : ... .. . ... : ... .. . ... : ... .. . ... : ... .. . ... : ... .. . ... : ... .. . ... : ... .. . ...
ROW 1E : ... .. . ... ... : ... .. . ... : ... .. . ... : ... .. . ... : ... .. . ... : ... .. . ... : ... .. . ... : ... .. . ...
ROW 1F : ... .. . ... ... : ... .. . ... : ... .. . ... : ... .. . ... : ... .. . ... : ... .. . ... : ... .. . ... : ... .. . ...

PATTERN 0D
ROW 00 : C#3 0C F V01 400 : ... .. . ... : ... .. . ... : ... .. . ... : ... .. . ... : B-3 08 . ... : ... .. . ... : ... .. . ...
ROW 01 : ... .. . ... ... : ... .. . ... : ... .. . ... : ... .. . ... : ... .. . ... : ... .. . ... : ... .. . ... : ... .. . ...
ROW 02 : D#3 0C . ... ... : ... .. . ... : ... .. . ... : ... .. . ... : ... .. . ... : ... .. . ... : ... .. . ... : ... .. . ...
ROW 03 : ... .. . ... ... : ... .. . ... : ... .. . ... : ... .. . ... : ... .. . ... : ... .. . ... : ... .. . ... : ... .. . ...
ROW 04 : G#3 0C . ... ... : ... .. . ... : ... .. . ... : ... .. . ... : ... .. . ... : ... .. . ... : ... .. . ... : ... .. . ...
ROW 05 : ... .. . ... ... : ... .. . ... : ... .. . ... : ... .. . ... : ... .. . ... : ... .. . ... : ... .. . ... : ... .. . ...
ROW 06 : A#3 0C . ... ... : ... .. . ... : ... .. . ... : ... .. . ... : ... .. . ... : ... .. . ... : ... .. . ... : ... .. . ...
ROW 07 : ... .. . ... ... : ... .. . ... : ... .. . ... : ... .. . ... : ... .. . ... : ... .. . ... : ... .. . ... : ... .. . ...
ROW 08 : C#4 0C . ... ... : ... .. . ... : ... .. . ... : ... .. . ... : ... .. . ... : C#4 08 . ... : ... .. . ... : ... .. . ...
ROW 09 : ... .. . ... ... : ... .. . ... : ... .. . ... : ... .. . ... : ... .. . ... : ... .. . ... : ... .. . ... : ... .. . ...
ROW 0A : D#4 0C . ... ... : ... .. . ... : ... .. . ... : ... .. . ... : ... .. . ... : ... .. . ... : ... .. . ... : ... .. . ...
ROW 0B : ... .. . ... ... : ... .. . ... : ... .. . ... : ... .. . ... : ... .. . ... : ... .. . ... : ... .. . ... : ... .. . ...
ROW 0C : G#4 0C . ... ... : ... .. . ... : ... .. . ... : ... .. . ... : ... .. . ... : G#3 08 . ... : ... .. . ... : ... .. . ...
ROW 0D : ... .. . ... ... : ... .. . ... : ... .. . ... : ... .. . ... : ... .. . ... : ... .. . ... : ... .. . ... : ... .. . ...
ROW 0E : A#4 0C . ... ... : ... .. . ... : ... .. . ... : ... .. . ... : ... .. . ... : ... .. . ... : ... .. . ... : ... .. . ...
ROW 0F : ... .. . ... ... : ... .. . ... : ... .. . ... : ... .. . ... : ... .. . ... : ... .. . ... : ... .. . ... : ... .. . ...
ROW 10 : B-4 0C . ... ... : ... .. . ... : ... .. . ... : ... .. . ... : ... .. . ... : ... .. . ... : ... .. . ... : ... .. . ...
ROW 11 : ... .. . ... ... : ... .. . ... : ... .. . ... : ... .. . ... : ... .. . ... : ... .. . ... : ... .. . ... : ... .. . ...
ROW 12 : A#4 0C . ... ... : ... .. . ... : ... .. . ... : ... .. . ... : ... .. . ... : ... .. . ... : ... .. . ... : ... .. . ...
ROW 13 : ... .. . ... ... : ... .. . ... : ... .. . ... : ... .. . ... : ... .. . ... : ... .. . 481 : ... .. . ... : ... .. . ...
ROW 14 : F#4 0C . ... ... : ... .. . ... : ... .. . ... : ... .. . ... : ... .. . ... : ... .. . 482 : ... .. . ... : ... .. . ...
ROW 15 : ... .. . ... ... : ... .. . ... : ... .. . ... : ... .. . ... : ... .. . ... : ... .. . ... : ... .. . ... : ... .. . ...
ROW 16 : C#4 0C . ... ... : ... .. . ... : ... .. . ... : ... .. . ... : ... .. . ... : ... .. . ... : ... .. . ... : ... .. . ...
ROW 17 : ... .. . ... ... : ... .. . ... : ... .. . ... : ... .. . ... : ... .. . ... : ... .. . ... : ... .. . ... : ... .. . ...
ROW 18 : B-3 0C . ... ... : ... .. . ... : ... .. . ... : ... .. . ... : ... .. . ... : ... .. . ... : ... .. . ... : ... .. . ...
ROW 19 : ... .. . ... ... : ... .. . ... : ... .. . ... : ... .. . ... : ... .. . ... : ... .. . ... : ... .. . ... : ... .. . ...
ROW 1A : A#3 0C . ... ... : ... .. . ... : ... .. . ... : ... .. . ... : ... .. . ... : ... .. . ... : ... .. . ... : ... .. . ...
ROW 1B : ... .. . ... ... : ... .. . ... : ... .. . ... : ... .. . ... : ... .. . ... : ... .. . ... : ... .. . ... : ... .. . ...
ROW 1C : F#3 0C . ... ... : ... .. . ... : ... .. . ... : ... .. . ... : ... .. . ... : ... .. . ... : ... .. . ... : ... .. . ...
ROW 1D : ... .. . ... ... : ... .. . ... : ... .. . ... : ... .. . ... : ... .. . ... : ... .. . ... : ... .. . ... : ... .. . ...
ROW 1E : C#3 0C . ... ... : ... .. . ... : ... .. . ... : ... .. . ... : ... .. . ... : ... .. . ... : ... .. . ... : ... .. . ...
ROW 1F : ... .. . ... ... : ... .. . ... : ... .. . ... : ... .. . ... : ... .. . ... : ... .. . ... : ... .. . ... : ... .. . ...

PATTERN 0E
ROW 00 : F#4 0C . V01 ... : ... .. . ... : ... .. . ... : ... .. . ... : ... .. . ... : ... .. . ... : D#3 0B 9 482 : ... .. . ...
ROW 01 : ... .. . ... ... : ... .. . ... : ... .. . ... : ... .. . ... : ... .. . ... : ... .. . ... : ... .. . ... : ... .. . ...
ROW 02 : ... .. . ... ... : ... .. . ... : ... .. . ... : ... .. . ... : ... .. . ... : ... .. . ... : ... .. . ... : ... .. . ...
ROW 03 : ... .. . ... ... : ... .. . ... : ... .. . ... : ... .. . ... : ... .. . ... : ... .. . 481 : ... .. . ... : ... .. . ...
ROW 04 : D#4 0C . ... ... : ... .. . ... : ... .. . ... : ... .. . ... : ... .. . ... : ... .. . 482 : ... .. . ... : ... .. . ...
ROW 05 : ... .. . ... ... : ... .. . ... : ... .. . ... : ... .. . ... : ... .. . ... : ... .. . ... : ... .. . ... : ... .. . ...
ROW 06 : ... .. . ... ... : ... .. . ... : ... .. . ... : ... .. . ... : ... .. . ... : ... .. . ... : ... .. . ... : ... .. . ...
ROW 07 : ... .. . ... ... : ... .. . ... : ... .. . ... : ... .. . ... : ... .. . ... : ... .. . ... : ... .. . ... : ... .. . ...
ROW 08 : G#4 0C . ... ... : ... .. . ... : ... .. . ... : ... .. . ... : ... .. . ... : ... .. . ... : ... .. . ... : ... .. . ...
ROW 09 : ... .. . ... ... : ... .. . ... : ... .. . ... : ... .. . ... : ... .. . ... : ... .. . ... : ... .. . ... : ... .. . ...
ROW 0A : ... .. . ... ... : ... .. . ... : ... .. . ... : ... .. . ... : ... .. . ... : ... .. . ... : ... .. . ... : ... .. . ...
ROW 0B : ... .. . ... ... : ... .. . ... : ... .. . ... : ... .. . ... : ... .. . ... : ... .. . ... : ... .. . ... : ... .. . ...
ROW 0C : D#4 0C . ... ... : ... .. . ... : ... .. . ... : ... .. . ... : ... .. . ... : ... .. . ... : ... .. . ... : ... .. . ...
ROW 0D : ... .. . ... ... : ... .. . ... : ... .. . ... : ... .. . ... : ... .. . ... : ... .. . ... : ... .. . ... : ... .. . ...
ROW 0E : ... .. . ... ... : ... .. . ... : ... .. . ... : ... .. . ... : ... .. . ... : ... .. . ... : ... .. . ... : ... .. . ...
ROW 0F : ... .. . ... ... : ... .. . ... : ... .. . ... : ... .. . ... : ... .. . ... : ... .. . ... : ... .. . ... : ... .. . ...
ROW 10 : F#4 0C . ... ... : ... .. . ... : ... .. . ... : ... .. . ... : ... .. . ... : === .. . 400 : ... .. . ... : ... .. . ...
ROW 11 : ... .. . ... ... : ... .. . ... : ... .. . ... : ... .. . ... : ... .. . ... : ... .. . ... : ... .. . ... : ... .. . ...
ROW 12 : ... .. . ... ... : ... .. . ... : ... .. . ... : ... .. . ... : ... .. . ... : ... .. . ... : ... .. . ... : ... .. . ...
ROW 13 : ... .. . ... ... : ... .. . ... : ... .. . ... : ... .. . ... : ... .. . ... : ... .. . ... : ... .. . ... : ... .. . ...
ROW 14 : D#4 0C . ... ... : ... .. . ... : ... .. . ... : ... .. . ... : ... .. . ... : ... .. . ... : ... .. . ... : ... .. . ...
ROW 15 : ... .. . ... ... : ... .. . ... : ... .. . ... : ... .. . ... : ... .. . ... : ... .. . ... : ... .. . ... : ... .. . ...
ROW 16 : ... .. . ... ... : ... .. . ... : ... .. . ... : ... .. . ... : ... .. . ... : ... .. . ... : ... .. . ... : ... .. . ...
ROW 17 : ... .. . ... ... : ... .. . ... : ... .. . ... : ... .. . ... : ... .. . ... : ... .. . ... : ... .. . ... : ... .. . ...
ROW 18 : G#4 0C . ... ... : ... .. . ... : ... .. . ... : ... .. . ... : ... .. . ... : G#3 08 . ... : ... .. . ... : ... .. . ...
ROW 19 : ... .. . ... ... : ... .. . ... : ... .. . ... : ... .. . ... : ... .. . ... : ... .. . ... : ... .. . ... : ... .. . ...
ROW 1A : ... .. . ... ... : ... .. . ... : ... .. . ... : ... .. . ... : ... .. . ... : ... .. . ... : ... .. . ... : ... .. . ...
ROW 1B : ... .. . ... ... : ... .. . ... : ... .. . ... : ... .. . ... : ... .. . ... : ... .. . ... : ... .. . ... : ... .. . ...
ROW 1C : D#4 0C . ... ... : ... .. . ... : ... .. . ... : ... .. . ... : ... .. . ... : B-3 08 . ... : ... .. . ... : ... .. . ...
ROW 1D : ... .. . ... ... : ... .. . ... : ... .. . ... : ... .. . ... : ... .. . ... : ... .. . ... : ... .. . ... : ... .. . ...
ROW 1E : ... .. . ... ... : ... .. . ... : ... .. . ... : ... .. . ... : ... .. . ... : ... .. . ... : ... .. . ... : ... .. . ...
ROW 1F : ... .. . ... ... : ... .. . ... : ... .. . ... : ... .. . ... : ... .. . ... : ... .. . ... : ... .. . ... : ... .. . ...

PATTERN 0F
ROW 00 : C-5 0C . ... V01 : ... .. . ... : ... .. . ... : ... .. . ... : ... .. . ... : ... .. . ... : ... .. . ... : ... .. . ...
ROW 01 : ... .. . ... ... : ... .. . ... : ... .. . ... : ... .. . ... : ... .. . ... : ... .. . ... : ... .. . ... : ... .. . ...
ROW 02 : ... .. . ... ... : ... .. . ... : ... .. . ... : ... .. . ... : ... .. . ... : ... .. . ... : ... .. . ... : ... .. . ...
ROW 03 : ... .. . ... ... : ... .. . ... : ... .. . ... : ... .. . ... : ... .. . ... : ... .. . ... : ... .. . ... : ... .. . ...
ROW 04 : D#4 0C . ... ... : ... .. . ... : ... .. . ... : ... .. . ... : ... .. . ... : ... .. . ... : ... .. . ... : ... .. . ...
ROW 05 : ... .. . ... ... : ... .. . ... : ... .. . ... : ... .. . ... : ... .. . ... : ... .. . ... : ... .. . ... : ... .. . ...
ROW 06 : ... .. . ... ... : ... .. . ... : ... .. . ... : ... .. . ... : ... .. . ... : ... .. . ... : ... .. . ... : ... .. . ...
ROW 07 : ... .. . ... ... : ... .. . ... : ... .. . ... : ... .. . ... : ... .. . ... : ... .. . ... : ... .. . ... : ... .. . ...
ROW 08 : G#4 0C . ... ... : ... .. . ... : ... .. . ... : ... .. . ... : ... .. . ... : B-3 08 . ... : ... .. . ... : ... .. . ...
ROW 09 : ... .. . ... ... : ... .. . ... : ... .. . ... : ... .. . ... : ... .. . ... : ... .. . ... : ... .. . ... : ... .. . ...
ROW 0A : ... .. . ... ... : ... .. . ... : ... .. . ... : ... .. . ... : ... .. . ... : ... .. . ... : ... .. . ... : ... .. . ...
ROW 0B : ... .. . ... ... : ... .. . ... : ... .. . ... : ... .. . ... : ... .. . ... : ... .. . ... : ... .. . ... : ... .. . ...
ROW 0C : D#4 0C . ... ... : ... .. . ... : ... .. . ... : ... .. . ... : ... .. . ... : ... .. . ... : ... .. . ... : ... .. . ...
ROW 0D : ... .. . ... ... : ... .. . ... : ... .. . ... : ... .. . ... : ... .. . ... : ... .. . ... : ... .. . ... : ... .. . ...
ROW 0E : ... .. . ... ... : ... .. . ... : ... .. . ... : ... .. . ... : ... .. . ... : ... .. . ... : ... .. . ... : ... .. . ...
ROW 0F : ... .. . ... ... : ... .. . ... : ... .. . ... : ... .. . ... : ... .. . ... : ... .. . ... : ... .. . ... : ... .. . ...
ROW 10 : F#4 0C . ... ... : ... .. . ... : ... .. . ... : ... .. . ... : ... .. . ... : C#4 08 . ... : ... .. . ... : ... .. . ...
ROW 11 : ... .. . ... ... : ... .. . ... : ... .. . ... : ... .. . ... : ... .. . ... : ... .. . ... : ... .. . ... : ... .. . ...
ROW 12 : ... .. . ... ... : ... .. . ... : ... .. . ... : ... .. . ... : ... .. . ... : ... .. . ... : ... .. . ... : ... .. . ...
ROW 13 : ... .. . ... ... : ... .. . ... : ... .. . ... : ... .. . ... : ... .. . ... : ... .. . ... : ... .. . ... : ... .. . ...
ROW 14 : D#4 0C . ... ... : ... .. . ... : ... .. . ... : ... .. . ... : ... .. . ... : ... .. . ... : ... .. . ... : ... .. . ...
ROW 15 : ... .. . ... ... : ... .. . ... : ... .. . ... : ... .. . ... : ... .. . ... : ... .. . ... : ... .. . ... : ... .. . ...
ROW 16 : ... .. . ... ... : ... .. . ... : ... .. . ... : ... .. . ... : ... .. . ... : ... .. . ... : ... .. . ... : ... .. . ...
ROW 17 : ... .. . ... ... : ... .. . ... : ... .. . ... : ... .. . ... : ... .. . ... : ... .. . ... : ... .. . ... : ... .. . ...
ROW 18 : G#4 0C . ... ... : ... .. . ... : ... .. . ... : ... .. . ... : ... .. . ... : D#4 08 . ... : ... .. . ... : ... .. . ...
ROW 19 : ... .. . ... ... : ... .. . ... : ... .. . ... : ... .. . ... : ... .. . ... : ... .. . ... : ... .. . ... : ... .. . ...
ROW 1A : ... .. . ... ... : ... .. . ... : ... .. . ... : ... .. . ... : ... .. . ... : ... .. . ... : ... .. . ... : ... .. . ...
ROW 1B : ... .. . ... ... : ... .. . ... : ... .. . ... : ... .. . ... : ... .. . ... : ... .. . ... : ... .. . ... : ... .. . ...
ROW 1C : D#4 0C . ... ... : ... .. . ... : ... .. . ... : ... .. . ... : ... .. . ... : ... .. . ... : ... .. . ... : ... .. . ...
ROW 1D : ... .. . ... ... : ... .. . ... : ... .. . ... : ... .. . ... : ... .. . ... : ... .. . ... : ... .. . ... : ... .. . ...
ROW 1E : ... .. . ... ... : ... .. . ... : ... .. . ... : ... .. . ... : ... .. . ... : ... .. . ... : ... .. . ... : ... .. . ...
ROW 1F : ... .. . ... ... : ... .. . ... : ... .. . ... : ... .. . ... : ... .. . ... : ... .. . ... : ... .. . ... : ... .. . ...

PATTERN 10
ROW 00 : ... .. . ... ... : ... .. . ... : ... .. . ... : ... .. . ... : ... .. . ... : D#4 08 . ... : G#3 0B 9 482 : ... .. . ...
ROW 01 : ... .. . ... ... : ... .. . ... : ... .. . ... : ... .. . ... : ... .. . ... : ... .. . ... : ... .. . ... : ... .. . ...
ROW 02 : ... .. . ... ... : ... .. . ... : ... .. . ... : ... .. . ... : ... .. . ... : ... .. . ... : ... .. . ... : ... .. . ...
ROW 03 : ... .. . ... ... : ... .. . ... : ... .. . ... : ... .. . ... : ... .. . ... : ... .. . ... : ... .. . ... : ... .. . ...
ROW 04 : ... .. . ... ... : ... .. . ... : ... .. . ... : ... .. . ... : ... .. . ... : C#4 08 . ... : ... .. . ... : ... .. . ...
ROW 05 : ... .. . ... ... : ... .. . ... : ... .. . ... : ... .. . ... : ... .. . ... : ... .. . ... : ... .. . ... : ... .. . ...
ROW 06 : ... .. . ... ... : ... .. . ... : ... .. . ... : ... .. . ... : ... .. . ... : ... .. . ... : ... .. . ... : ... .. . ...
ROW 07 : ... .. . ... ... : ... .. . ... : ... .. . ... : ... .. . ... : ... .. . ... : ... .. . ... : ... .. . ... : ... .. . ...
ROW 08 : ... .. . ... ... : ... .. . ... : ... .. . ... : ... .. . ... : ... .. . ... : D#4 08 . ... : ... .. . ... : ... .. . ...
ROW 09 : ... .. . ... ... : ... .. . ... : ... .. . ... : ... .. . ... : ... .. . ... : ... .. . ... : ... .. . ... : ... .. . ...
ROW 0A : ... .. . ... ... : ... .. . ... : ... .. . ... : ... .. . ... : ... .. . ... : ... .. . ... : ... .. . ... : ... .. . ...
ROW 0B : ... .. . ... ... : ... .. . ... : ... .. . ... : ... .. . ... : ... .. . ... : ... .. . ... : ... .. . ... : ... .. . ...
ROW 0C : ... .. . ... ... : ... .. . ... : ... .. . ... : ... .. . ... : ... .. . ... : C#4 08 . ... : ... .. . ... : ... .. . ...
ROW 0D : ... .. . ... ... : ... .. . ... : ... .. . ... : ... .. . ... : ... .. . ... : ... .. . ... : ... .. . ... : ... .. . ...
ROW 0E : ... .. . ... ... : ... .. . ... : ... .. . ... : ... .. . ... : ... .. . ... : ... .. . ... : ... .. . ... : ... .. . ...
ROW 0F : ... .. . ... ... : ... .. . ... : ... .. . ... : ... .. . ... : ... .. . ... : ... .. . ... : ... .. . ... : ... .. . ...
ROW 10 : ... .. . ... ... : ... .. . ... : ... .. . ... : ... .. . ... : ... .. . ... : === .. . ... : ... .. . ... : ... .. . ...
ROW 11 : ... .. . ... ... : ... .. . ... : ... .. . ... : ... .. . ... : ... .. . ... : ... .. . ... : ... .. . ... : ... .. . ...
ROW 12 : ... .. . ... ... : ... .. . ... : ... .. . ... : ... .. . ... : ... .. . ... : ... .. . ... : ... .. . ... : ... .. . ...
ROW 13 : ... .. . ... ... : ... .. . ... : ... .. . ... : ... .. . ... : ... .. . ... : ... .. . ... : ... .. . ... : ... .. . ...
ROW 14 : ... .. . ... ... : ... .. . ... : ... .. . ... : ... .. . ... : ... .. . ... : D#4 08 . ... : ... .. . ... : ... .. . ...
ROW 15 : ... .. . ... ... : ... .. . ... : ... .. . ... : ... .. . ... : ... .. . ... : ... .. . ... : ... .. . ... : ... .. . ...
ROW 16 : ... .. . ... ... : ... .. . ... : ... .. . ... : ... .. . ... : ... .. . ... : ... .. . ... : ... .. . ... : ... .. . ...
ROW 17 : ... .. . ... ... : ... .. . ... : ... .. . ... : ... .. . ... : ... .. . ... : ... .. . ... : ... .. . ... : ... .. . ...
ROW 18 : ... .. . ... ... : ... .. . ... : ... .. . ... : ... .. . ... : ... .. . ... : === .. . ... : ... .. . ... : ... .. . ...
ROW 19 : ... .. . ... ... : ... .. . ... : ... .. . ... : ... .. . ... : ... .. . ... : ... .. . ... : ... .. . ... : ... .. . ...
ROW 1A : ... .. . ... ... : ... .. . ... : ... .. . ... : ... .. . ... : ... .. . ... : ... .. . ... : ... .. . ... : ... .. . ...
ROW 1B : ... .. . ... ... : ... .. . ... : ... .. . ... : ... .. . ... : ... .. . ... : ... .. . ... : ... .. . ... : ... .. . ...
ROW 1C : ... .. . ... ... : ... .. . ... : ... .. . ... : ... .. . ... : ... .. . ... : F#4 08 . ... : ... .. . ... : ... .. . ...
ROW 1D : ... .. . ... ... : ... .. . ... : ... .. . ... : ... .. . ... : ... .. . ... : ... .. . ... : ... .. . ... : ... .. . ...
ROW 1E : ... .. . ... ... : ... .. . ... : ... .. . ... : ... .. . ... : ... .. . ... : ... .. . ... : ... .. . ... : ... .. . ...
ROW 1F : ... .. . ... ... : ... .. . ... : ... .. . ... : ... .. . ... : ... .. . ... : ... .. . ... : ... .. . ... : ... .. . ...

PATTERN 11
ROW 00 : ... .. . ... ... : ... .. . ... : ... .. . ... : ... .. . ... : ... .. . ... : ... .. . ... : ... .. . ... : ... .. . ...
ROW 01 : ... .. . ... ... : ... .. . ... : ... .. . ... : ... .. . ... : ... .. . ... : ... .. . ... : ... .. . ... : ... .. . ...
ROW 02 : ... .. . ... ... : ... .. . ... : ... .. . ... : ... .. . ... : ... .. . ... : ... .. . ... : ... .. . ... : ... .. . ...
ROW 03 : ... .. . ... ... : ... .. . ... : ... .. . ... : ... .. . ... : ... .. . ... : ... .. . ... : ... .. . ... : ... .. . ...
ROW 04 : ... .. . ... ... : ... .. . ... : ... .. . ... : ... .. . ... : ... .. . ... : ... .. . ... : ... .. . ... : ... .. . ...
ROW 05 : ... .. . ... ... : ... .. . ... : ... .. . ... : ... .. . ... : ... .. . ... : ... .. . ... : ... .. . ... : ... .. . ...
ROW 06 : ... .. . ... ... : ... .. . ... : ... .. . ... : ... .. . ... : ... .. . ... : ... .. . ... : ... .. . ... : ... .. . ...
ROW 07 : ... .. . ... ... : ... .. . ... : ... .. . ... : ... .. . ... : ... .. . ... : ... .. . ... : ... .. . ... : ... .. . ...
ROW 08 : ... .. . ... ... : ... .. . ... : ... .. . ... : ... .. . ... : ... .. . ... : ... .. . ... : ... .. . ... : ... .. . ...
ROW 09 : ... .. . ... ... : ... .. . ... : ... .. . ... : ... .. . ... : ... .. . ... : ... .. . ... : ... .. . ... : ... .. . ...
ROW 0A : ... .. . ... ... : ... .. . ... : ... .. . ... : ... .. . ... : ... .. . ... : ... .. . ... : ... .. . ... : ... .. . ...
ROW 0B : ... .. . ... ... : ... .. . ... : ... .. . ... : ... .. . ... : ... .. . ... : ... .. . ... : ... .. . ... : ... .. . ...
ROW 0C : ... .. . ... ... : ... .. . ... : ... .. . ... : ... .. . ... : ... .. . ... : ... .. . ... : ... .. . ... : ... .. . ...
ROW 0D : ... .. . ... ... : ... .. . ... : ... .. . ... : ... .. . ... : ... .. . ... : ... .. . ... : ... .. . ... : ... .. . ...
ROW 0E : ... .. . ... ... : ... .. . ... : ... .. . ... : ... .. . ... : ... .. . ... : ... .. . ... : ... .. . ... : ... .. . ...
ROW 0F : ... .. . ... ... : ... .. . ... : ... .. . ... : ... .. . ... : ... .. . ... : ... .. . ... : ... .. . ... : ... .. . ...
ROW 10 : ... .. . ... ... : ... .. . ... : ... .. . ... : ... .. . ... : ... .. . ... : === .. . 400 : ... .. . ... : ... .. . ...
ROW 11 : ... .. . ... ... : ... .. . ... : ... .. . ... : ... .. . ... : ... .. . ... : ... .. . ... : ... .. . ... : ... .. . ...
ROW 12 : ... .. . ... ... : ... .. . ... : ... .. . ... : ... .. . ... : ... .. . ... : ... .. . ... : ... .. . ... : ... .. . ...
ROW 13 : ... .. . ... ... : ... .. . ... : ... .. . ... : ... .. . ... : ... .. . ... : ... .. . ... : ... .. . ... : ... .. . ...
ROW 14 : ... .. . ... ... : ... .. . ... : ... .. . ... : ... .. . ... : ... .. . ... : ... .. . ... : ... .. . ... : ... .. . ...
ROW 15 : ... .. . ... ... : ... .. . ... : ... .. . ... : ... .. . ... : ... .. . ... : ... .. . ... : ... .. . ... : ... .. . ...
ROW 16 : ... .. . ... ... : ... .. . ... : ... .. . ... : ... .. . ... : ... .. . ... : ... .. . ... : ... .. . ... : ... .. . ...
ROW 17 : ... .. . ... ... : ... .. . ... : ... .. . ... : ... .. . ... : ... .. . ... : ... .. . ... : ... .. . ... : ... .. . ...
ROW 18 : ... .. . ... ... : ... .. . ... : ... .. . ... : ... .. . ... : ... .. . ... : D#4 08 F ... : ... .. . ... : ... .. . ...
ROW 19 : ... .. . ... ... : ... .. . ... : ... .. . ... : ... .. . ... : ... .. . ... : ... .. . ... : ... .. . ... : ... .. . ...
ROW 1A : ... .. . ... ... : ... .. . ... : ... .. . ... : ... .. . ... : ... .. . ... : ... .. . ... : ... .. . ... : ... .. . ...
ROW 1B : ... .. . ... ... : ... .. . ... : ... .. . ... : ... .. . ... : ... .. . ... : ... .. . ... : ... .. . ... : ... .. . ...
ROW 1C : ... .. . ... ... : ... .. . ... : ... .. . ... : ... .. . ... : ... .. . ... : ... .. . ... : ... .. . ... : ... .. . ...
ROW 1D : ... .. . ... ... : ... .. . ... : ... .. . ... : ... .. . ... : ... .. . ... : ... .. . ... : ... .. . ... : ... .. . ...
ROW 1E : ... .. . ... ... : ... .. . ... : ... .. . ... : ... .. . ... : ... .. . ... : ... .. . ... : ... .. . ... : ... .. . ...
ROW 1F : ... .. . ... ... : ... .. . ... : ... .. . ... : ... .. . ... : ... .. . ... : ... .. . ... : ... .. . ... : ... .. . ...

PATTERN 12
ROW 00 : ... .. . ... ... : ... .. . ... : ... .. . ... : ... .. . ... : ... .. . ... : F#4 08 . ... : ... .. . ... : ... .. . ...
ROW 01 : ... .. . ... ... : ... .. . ... : ... .. . ... : ... .. . ... : ... .. . ... : ... .. . ... : ... .. . ... : ... .. . ...
ROW 02 : ... .. . ... ... : ... .. . ... : ... .. . ... : ... .. . ... : ... .. . ... : ... .. . ... : ... .. . ... : ... .. . ...
ROW 03 : ... .. . ... ... : ... .. . ... : ... .. . ... : ... .. . ... : ... .. . ... : ... .. . ... : ... .. . ... : ... .. . ...
ROW 04 : ... .. . ... ... : ... .. . ... : ... .. . ... : ... .. . ... : ... .. . ... : ... .. . ... : ... .. . ... : ... .. . ...
ROW 05 : ... .. . ... ... : ... .. . ... : ... .. . ... : ... .. . ... : ... .. . ... : ... .. . ... : ... .. . ... : ... .. . ...
ROW 06 : ... .. . ... ... : ... .. . ... : ... .. . ... : ... .. . ... : ... .. . ... : ... .. . ... : ... .. . ... : ... .. . ...
ROW 07 : ... .. . ... ... : ... .. . ... : ... .. . ... : ... .. . ... : ... .. . ... : ... .. . ... : ... .. . ... : ... .. . ...
ROW 08 : ... .. . ... ... : ... .. . ... : ... .. . ... : ... .. . ... : ... .. . ... : ... .. . ... : ... .. . ... : ... .. . ...
ROW 09 : ... .. . ... ... : ... .. . ... : ... .. . ... : ... .. . ... : ... .. . ... : ... .. . ... : ... .. . ... : ... .. . ...
ROW 0A : ... .. . ... ... : ... .. . ... : ... .. . ... : ... .. . ... : ... .. . ... : ... .. . ... : ... .. . ... : ... .. . ...
ROW 0B : ... .. . ... ... : ... .. . ... : ... .. . ... : ... .. . ... : ... .. . ... : ... .. . ... : ... .. . ... : ... .. . ...
ROW 0C : ... .. . ... ... : ... .. . ... : ... .. . ... : ... .. . ... : ... .. . ... : G#4 08 . ... : ... .. . ... : ... .. . ...
ROW 0D : ... .. . ... ... : ... .. . ... : ... .. . ... : ... .. . ... : ... .. . ... : ... .. . ... : ... .. . ... : ... .. . ...
ROW 0E : ... .. . ... ... : ... .. . ... : ... .. . ... : ... .. . ... : ... .. . ... : ... .. . ... : ... .. . ... : ... .. . ...
ROW 0F : ... .. . ... ... : ... .. . ... : ... .. . ... : ... .. . ... : ... .. . ... : ... .. . ... : ... .. . ... : ... .. . ...
ROW 10 : ... .. . ... ... : ... .. . ... : ... .. . ... : ... .. . ... : ... .. . ... : ... .. . ... : ... .. . ... : ... .. . ...
ROW 11 : ... .. . ... ... : ... .. . ... : ... .. . ... : ... .. . ... : ... .. . ... : ... .. . ... : ... .. . ... : ... .. . ...
ROW 12 : ... .. . ... ... : ... .. . ... : ... .. . ... : ... .. . ... : ... .. . ... : ... .. . ... : ... .. . ... : ... .. . ...
ROW 13 : ... .. . ... ... : ... .. . ... : ... .. . ... : ... .. . ... : ... .. . ... : ... .. . ... : ... .. . ... : ... .. . ...
ROW 14 : ... .. . ... ... : ... .. . ... : ... .. . ... : ... .. . ... : ... .. . ... : === .. . ... : ... .. . ... : ... .. . ...
ROW 15 : ... .. . ... ... : ... .. . ... : ... .. . ... : ... .. . ... : ... .. . ... : ... .. . ... : ... .. . ... : ... .. . ...
ROW 16 : ... .. . ... ... : ... .. . ... : ... .. . ... : ... .. . ... : ... .. . ... : ... .. . ... : ... .. . ... : ... .. . ...
ROW 17 : ... .. . ... ... : ... .. . ... : ... .. . ... : ... .. . ... : ... .. . ... : ... .. . ... : ... .. . ... : ... .. . ...
ROW 18 : ... .. . ... ... : ... .. . ... : ... .. . ... : ... .. . ... : ... .. . ... : D#4 08 . ... : ... .. . ... : ... .. . ...
ROW 19 : ... .. . ... ... : ... .. . ... : ... .. . ... : ... .. . ... : ... .. . ... : ... .. . ... : ... .. . ... : ... .. . ...
ROW 1A : ... .. . ... ... : ... .. . ... : ... .. . ... : ... .. . ... : ... .. . ... : ... .. . ... : ... .. . ... : ... .. . ...
ROW 1B : ... .. . ... ... : ... .. . ... : ... .. . ... : ... .. . ... : ... .. . ... : ... .. . ... : ... .. . ... : ... .. . ...
ROW 1C : ... .. . ... ... : ... .. . ... : ... .. . ... : ... .. . ... : ... .. . ... : ... .. . ... : ... .. . ... : ... .. . ...
ROW 1D : ... .. . ... ... : ... .. . ... : ... .. . ... : ... .. . ... : ... .. . ... : ... .. . ... : ... .. . ... : ... .. . ...
ROW 1E : ... .. . ... ... : ... .. . ... : ... .. . ... : ... .. . ... : ... .. . ... : ... .. . ... : ... .. . ... : ... .. . ...
ROW 1F : ... .. . ... ... : ... .. . ... : ... .. . ... : ... .. . ... : ... .. . ... : ... .. . ... : ... .. . ... : ... .. . ...

PATTERN 13
ROW 00 : ... .. . ... ... : ... .. . ... : ... .. . ... : ... .. . ... : ... .. . ... : C#5 08 . ... : ... .. . ... : ... .. . ...
ROW 01 : ... .. . ... ... : ... .. . ... : ... .. . ... : ... .. . ... : ... .. . ... : ... .. . ... : ... .. . ... : ... .. . ...
ROW 02 : ... .. . ... ... : ... .. . ... : ... .. . ... : ... .. . ... : ... .. . ... : ... .. . ... : ... .. . ... : ... .. . ...
ROW 03 : ... .. . ... ... : ... .. . ... : ... .. . ... : ... .. . ... : ... .. . ... : ... .. . ... : ... .. . ... : ... .. . ...
ROW 04 : ... .. . ... ... : ... .. . ... : ... .. . ... : ... .. . ... : ... .. . ... : ... .. . ... : ... .. . ... : ... .. . ...
ROW 05 : ... .. . ... ... : ... .. . ... : ... .. . ... : ... .. . ... : ... .. . ... : ... .. . ... : ... .. . ... : ... .. . ...
ROW 06 : ... .. . ... ... : ... .. . ... : ... .. . ... : ... .. . ... : ... .. . ... : ... .. . ... : ... .. . ... : ... .. . ...
ROW 07 : ... .. . ... ... : ... .. . ... : ... .. . ... : ... .. . ... : ... .. . ... : ... .. . ... : ... .. . ... : ... .. . ...
ROW 08 : ... .. . ... ... : ... .. . ... : ... .. . ... : ... .. . ... : ... .. . ... : ... .. . ... : ... .. . ... : ... .. . ...
ROW 09 : ... .. . ... ... : ... .. . ... : ... .. . ... : ... .. . ... : ... .. . ... : ... .. . ... : ... .. . ... : ... .. . ...
ROW 0A : ... .. . ... ... : ... .. . ... : ... .. . ... : ... .. . ... : ... .. . ... : ... .. . ... : ... .. . ... : ... .. . ...
ROW 0B : ... .. . ... ... : ... .. . ... : ... .. . ... : ... .. . ... : ... .. . ... : ... .. . ... : ... .. . ... : ... .. . ...
ROW 0C : ... .. . ... ... : ... .. . ... : ... .. . ... : ... .. . ... : ... .. . ... : C-5 08 . ... : ... .. . ... : ... .. . ...
ROW 0D : ... .. . ... ... : ... .. . ... : ... .. . ... : ... .. . ... : ... .. . ... : ... .. . ... : ... .. . ... : ... .. . ...
ROW 0E : ... .. . ... ... : ... .. . ... : ... .. . ... : ... .. . ... : ... .. . ... : ... .. . ... : ... .. . ... : ... .. . ...
ROW 0F : ... .. . ... ... : ... .. . ... : ... .. . ... : ... .. . ... : ... .. . ... : ... .. . ... : ... .. . ... : ... .. . ...
ROW 10 : ... .. . ... ... : ... .. . ... : ... .. . ... : ... .. . ... : ... .. . ... : ... .. . ... : ... .. . ... : ... .. . ...
ROW 11 : ... .. . ... ... : ... .. . ... : ... .. . ... : ... .. . ... : ... .. . ... : ... .. . ... : ... .. . ... : ... .. . ...
ROW 12 : ... .. . ... ... : ... .. . ... : ... .. . ... : ... .. . ... : ... .. . ... : ... .. . ... : ... .. . ... : ... .. . ...
ROW 13 : ... .. . ... ... : ... .. . ... : ... .. . ... : ... .. . ... : ... .. . ... : ... .. . ... : ... .. . ... : ... .. . ...
ROW 14 : ... .. . ... ... : ... .. . ... : ... .. . ... : ... .. . ... : ... .. . ... : === .. . ... : ... .. . ... : ... .. . ...
ROW 15 : ... .. . ... ... : ... .. . ... : ... .. . ... : ... .. . ... : ... .. . ... : ... .. . ... : ... .. . ... : ... .. . ...
ROW 16 : ... .. . ... ... : ... .. . ... : ... .. . ... : ... .. . ... : ... .. . ... : ... .. . ... : ... .. . ... : ... .. . ...
ROW 17 : ... .. . ... ... : ... .. . ... : ... .. . ... : ... .. . ... : ... .. . ... : ... .. . ... : ... .. . ... : ... .. . ...
ROW 18 : ... .. . ... ... : ... .. . ... : ... .. . ... : ... .. . ... : ... .. . ... : G#4 08 . ... : ... .. . ... : ... .. . ...
ROW 19 : ... .. . ... ... : ... .. . ... : ... .. . ... : ... .. . ... : ... .. . ... : ... .. . ... : ... .. . ... : ... .. . ...
ROW 1A : ... .. . ... ... : ... .. . ... : ... .. . ... : ... .. . ... : ... .. . ... : ... .. . ... : ... .. . ... : ... .. . ...
ROW 1B : ... .. . ... ... : ... .. . ... : ... .. . ... : ... .. . ... : ... .. . ... : ... .. . ... : ... .. . ... : ... .. . ...
ROW 1C : ... .. . ... ... : ... .. . ... : ... .. . ... : ... .. . ... : ... .. . ... : ... .. . ... : ... .. . ... : ... .. . ...
ROW 1D : ... .. . ... ... : ... .. . ... : ... .. . ... : ... .. . ... : ... .. . ... : ... .. . ... : ... .. . ... : ... .. . ...
ROW 1E : ... .. . ... ... : ... .. . ... : ... .. . ... : ... .. . ... : ... .. . ... : ... .. . ... : ... .. . ... : ... .. . ...
ROW 1F : ... .. . ... ... : ... .. . ... : ... .. . ... : ... .. . ... : ... .. . ... : ... .. . ... : ... .. . ... : ... .. . ...

PATTERN 14
ROW 00 : ... .. . ... ... : ... .. . ... : ... .. . ... : ... .. . ... : ... .. . ... : F#4 08 . ... : ... .. . ... : ... .. . ...
ROW 01 : ... .. . ... ... : ... .. . ... : ... .. . ... : ... .. . ... : ... .. . ... : ... .. . ... : ... .. . ... : ... .. . ...
ROW 02 : ... .. . ... ... : ... .. . ... : ... .. . ... : ... .. . ... : ... .. . ... : ... .. . ... : ... .. . ... : ... .. . ...
ROW 03 : ... .. . ... ... : ... .. . ... : ... .. . ... : ... .. . ... : ... .. . ... : ... .. . ... : ... .. . ... : ... .. . ...
ROW 04 : ... .. . ... ... : ... .. . ... : ... .. . ... : ... .. . ... : ... .. . ... : ... .. . ... : ... .. . ... : ... .. . ...
ROW 05 : ... .. . ... ... : ... .. . ... : ... .. . ... : ... .. . ... : ... .. . ... : ... .. . ... : ... .. . ... : ... .. . ...
ROW 06 : ... .. . ... ... : ... .. . ... : ... .. . ... : ... .. . ... : ... .. . ... : ... .. . ... : ... .. . ... : ... .. . ...
ROW 07 : ... .. . ... ... : ... .. . ... : ... .. . ... : ... .. . ... : ... .. . ... : ... .. . ... : ... .. . ... : ... .. . ...
ROW 08 : ... .. . ... ... : ... .. . ... : ... .. . ... : ... .. . ... : ... .. . ... : ... .. . ... : ... .. . ... : ... .. . ...
ROW 09 : ... .. . ... ... : ... .. . ... : ... .. . ... : ... .. . ... : ... .. . ... : ... .. . ... : ... .. . ... : ... .. . ...
ROW 0A : ... .. . ... ... : ... .. . ... : ... .. . ... : ... .. . ... : ... .. . ... : ... .. . ... : ... .. . ... : ... .. . ...
ROW 0B : ... .. . ... ... : ... .. . ... : ... .. . ... : ... .. . ... : ... .. . ... : ... .. . ... : ... .. . ... : ... .. . ...
ROW 0C : ... .. . ... ... : ... .. . ... : ... .. . ... : ... .. . ... : ... .. . ... : G#4 08 . ... : ... .. . ... : ... .. . ...
ROW 0D : ... .. . ... ... : ... .. . ... : ... .. . ... : ... .. . ... : ... .. . ... : ... .. . ... : ... .. . ... : ... .. . ...
ROW 0E : ... .. . ... ... : ... .. . ... : ... .. . ... : ... .. . ... : ... .. . ... : ... .. . ... : ... .. . ... : ... .. . ...
ROW 0F : ... .. . ... ... : ... .. . ... : ... .. . ... : ... .. . ... : ... .. . ... : ... .. . ... : ... .. . ... : ... .. . ...
ROW 10 : ... .. . ... ... : ... .. . ... : ... .. . ... : ... .. . ... : ... .. . ... : ... .. . ... : ... .. . ... : ... .. . ...
ROW 11 : ... .. . ... ... : ... .. . ... : ... .. . ... : ... .. . ... : ... .. . ... : ... .. . ... : ... .. . ... : ... .. . ...
ROW 12 : ... .. . ... ... : ... .. . ... : ... .. . ... : ... .. . ... : ... .. . ... : ... .. . ... : ... .. . ... : ... .. . ...
ROW 13 : ... .. . ... ... : ... .. . ... : ... .. . ... : ... .. . ... : ... .. . ... : ... .. . ... : ... .. . ... : ... .. . ...
ROW 14 : ... .. . ... ... : ... .. . ... : ... .. . ... : ... .. . ... : ... .. . ... : ... .. . ... : ... .. . ... : ... .. . ...
ROW 15 : ... .. . ... ... : ... .. . ... : ... .. . ... : ... .. . ... : ... .. . ... : ... .. . ... : ... .. . ... : ... .. . ...
ROW 16 : ... .. . ... ... : ... .. . ... : ... .. . ... : ... .. . ... : ... .. . ... : ... .. . ... : ... .. . ... : ... .. . ...
ROW 17 : ... .. . ... ... : ... .. . ... : ... .. . ... : ... .. . ... : ... .. . ... : ... .. . ... : ... .. . ... : ... .. . ...
ROW 18 : ... .. . ... ... : ... .. . ... : ... .. . ... : ... .. . ... : ... .. . ... : === .. . ... : ... .. . ... : ... .. . ...
ROW 19 : ... .. . ... ... : ... .. . ... : ... .. . ... : ... .. . ... : ... .. . ... : ... .. . ... : ... .. . ... : ... .. . ...
ROW 1A : ... .. . ... ... : ... .. . ... : ... .. . ... : ... .. . ... : ... .. . ... : ... .. . ... : ... .. . ... : ... .. . ...
ROW 1B : ... .. . ... ... : ... .. . ... : ... .. . ... : ... .. . ... : ... .. . ... : ... .. . ... : ... .. . ... : ... .. . ...
ROW 1C : ... .. . ... ... : ... .. . ... : ... .. . ... : ... .. . ... : ... .. . ... : ... .. . ... : ... .. . ... : ... .. . ...
ROW 1D : ... .. . ... ... : ... .. . ... : ... .. . ... : ... .. . ... : ... .. . ... : ... .. . ... : ... .. . ... : ... .. . ...
ROW 1E : ... .. . ... ... : ... .. . ... : ... .. . ... : ... .. . ... : ... .. . ... : ... .. . ... : ... .. . ... : ... .. . ...
ROW 1F : ... .. . ... ... : ... .. . ... : ... .. . ... : ... .. . ... : ... .. . ... : ... .. . ... : ... .. . ... : ... .. . ...

PATTERN 15
ROW 00 : ... .. . ... ... : ... .. . ... : ... .. . ... : ... .. . ... : ... .. . ... : C#5 08 . ... : C#4 08 B 400 : ... .. . ...
ROW 01 : ... .. . ... ... : ... .. . ... : ... .. . ... : ... .. . ... : ... .. . ... : ... .. . ... : ... .. . ... : ... .. . ...
ROW 02 : ... .. . ... ... : ... .. . ... : ... .. . ... : ... .. . ... : ... .. . ... : ... .. . ... : ... .. . ... : ... .. . ...
ROW 03 : ... .. . ... ... : ... .. . ... : ... .. . ... : ... .. . ... : ... .. . ... : ... .. . ... : ... .. . ... : ... .. . ...
ROW 04 : ... .. . ... ... : ... .. . ... : ... .. . ... : ... .. . ... : ... .. . ... : ... .. . ... : ... .. . ... : ... .. . ...
ROW 05 : ... .. . ... ... : ... .. . ... : ... .. . ... : ... .. . ... : ... .. . ... : ... .. . ... : ... .. . ... : ... .. . ...
ROW 06 : ... .. . ... ... : ... .. . ... : ... .. . ... : ... .. . ... : ... .. . ... : ... .. . ... : ... .. . ... : ... .. . ...
ROW 07 : ... .. . ... ... : ... .. . ... : ... .. . ... : ... .. . ... : ... .. . ... : ... .. . ... : ... .. . ... : ... .. . ...
ROW 08 : ... .. . ... ... : ... .. . ... : ... .. . ... : ... .. . ... : ... .. . ... : ... .. . ... : ... .. . ... : ... .. . ...
ROW 09 : ... .. . ... ... : ... .. . ... : ... .. . ... : ... .. . ... : ... .. . ... : ... .. . ... : ... .. . ... : ... .. . ...
ROW 0A : ... .. . ... ... : ... .. . ... : ... .. . ... : ... .. . ... : ... .. . ... : ... .. . ... : ... .. . ... : ... .. . ...
ROW 0B : ... .. . ... ... : ... .. . ... : ... .. . ... : ... .. . ... : ... .. . ... : ... .. . ... : ... .. . ... : ... .. . ...
ROW 0C : ... .. . ... ... : ... .. . ... : ... .. . ... : ... .. . ... : ... .. . ... : D#5 08 . ... : D#4 08 . ... : ... .. . ...
ROW 0D : ... .. . ... ... : ... .. . ... : ... .. . ... : ... .. . ... : ... .. . ... : ... .. . ... : ... .. . ... : ... .. . ...
ROW 0E : ... .. . ... ... : ... .. . ... : ... .. . ... : ... .. . ... : ... .. . ... : ... .. . ... : ... .. . ... : ... .. . ...
ROW 0F : ... .. . ... ... : ... .. . ... : ... .. . ... : ... .. . ... : ... .. . ... : ... .. . ... : ... .. . ... : ... .. . ...
ROW 10 : ... .. . ... ... : ... .. . ... : ... .. . ... : ... .. . ... : ... .. . ... : ... .. . ... : ... .. . ... : ... .. . ...
ROW 11 : ... .. . ... ... : ... .. . ... : ... .. . ... : ... .. . ... : ... .. . ... : ... .. . ... : ... .. . ... : ... .. . ...
ROW 12 : ... .. . ... ... : ... .. . ... : ... .. . ... : ... .. . ... : ... .. . ... : ... .. . ... : ... .. . ... : ... .. . ...
ROW 13 : ... .. . ... ... : ... .. . ... : ... .. . ... : ... .. . ... : ... .. . ... : ... .. . ... : ... .. . ... : ... .. . ...
ROW 14 : ... .. . ... ... : ... .. . ... : ... .. . ... : ... .. . ... : ... .. . ... : ... .. . ... : ... .. . ... : ... .. . ...
ROW 15 : ... .. . ... ... : ... .. . ... : ... .. . ... : ... .. . ... : ... .. . ... : ... .. . ... : ... .. . ... : ... .. . ...
ROW 16 : ... .. . ... ... : ... .. . ... : ... .. . ... : ... .. . ... : ... .. . ... : ... .. . ... : ... .. . ... : ... .. . ...
ROW 17 : ... .. . ... ... : ... .. . ... : ... .. . ... : ... .. . ... : ... .. . ... : ... .. . ... : ... .. . ... : ... .. . ...
ROW 18 : ... .. . ... ... : ... .. . ... : ... .. . ... : ... .. . ... : ... .. . ... : F#5 08 . ... : === .. . ... : ... .. . ...
ROW 19 : ... .. . ... ... : ... .. . ... : ... .. . ... : ... .. . ... : ... .. . ... : ... .. . ... : ... .. . ... : ... .. . ...
ROW 1A : ... .. . ... ... : ... .. . ... : ... .. . ... : ... .. . ... : ... .. . ... : ... .. . ... : ... .. . ... : ... .. . ...
ROW 1B : ... .. . ... ... : ... .. . ... : ... .. . ... : ... .. . ... : ... .. . ... : ... .. . ... : ... .. . ... : ... .. . ...
ROW 1C : ... .. . ... ... : ... .. . ... : ... .. . ... : ... .. . ... : ... .. . ... : === .. . ... : ... .. . ... : ... .. . ...
ROW 1D : ... .. . ... ... : ... .. . ... : ... .. . ... : ... .. . ... : ... .. . ... : ... .. . ... : ... .. . ... : ... .. . ...
ROW 1E : ... .. . ... ... : ... .. . ... : ... .. . ... : ... .. . ... : ... .. . ... : ... .. . ... : ... .. . ... : ... .. . ...
ROW 1F : ... .. . ... ... : ... .. . ... : ... .. . ... : ... .. . ... : ... .. . ... : ... .. . ... : ... .. . ... : ... .. . ...

PATTERN 16
ROW 00 : ... .. . ... ... : ... .. . ... : ... .. . ... : ... .. . ... : ... .. . ... : B-4 08 . ... : G#3 0B 9 482 : ... .. . ...
ROW 01 : ... .. . ... ... : ... .. . ... : ... .. . ... : ... .. . ... : ... .. . ... : ... .. . ... : ... .. . ... : ... .. . ...
ROW 02 : ... .. . ... ... : ... .. . ... : ... .. . ... : ... .. . ... : ... .. . ... : ... .. . ... : ... .. . ... : ... .. . ...
ROW 03 : ... .. . ... ... : ... .. . ... : ... .. . ... : ... .. . ... : ... .. . ... : ... .. . ... : ... .. . ... : ... .. . ...
ROW 04 : ... .. . ... ... : ... .. . ... : ... .. . ... : ... .. . ... : ... .. . ... : ... .. . ... : ... .. . ... : ... .. . ...
ROW 05 : ... .. . ... ... : ... .. . ... : ... .. . ... : ... .. . ... : ... .. . ... : ... .. . ... : ... .. . ... : ... .. . ...
ROW 06 : ... .. . ... ... : ... .. . ... : ... .. . ... : ... .. . ... : ... .. . ... : ... .. . ... : ... .. . ... : ... .. . ...
ROW 07 : ... .. . ... ... : ... .. . ... : ... .. . ... : ... .. . ... : ... .. . ... : ... .. . ... : ... .. . ... : ... .. . ...
ROW 08 : ... .. . ... ... : ... .. . ... : ... .. . ... : ... .. . ... : ... .. . ... : C#5 08 . ... : ... .. . ... : ... .. . ...
ROW 09 : ... .. . ... ... : ... .. . ... : ... .. . ... : ... .. . ... : ... .. . ... : ... .. . ... : ... .. . ... : ... .. . ...
ROW 0A : ... .. . ... ... : ... .. . ... : ... .. . ... : ... .. . ... : ... .. . ... : ... .. . ... : ... .. . ... : ... .. . ...
ROW 0B : ... .. . ... ... : ... .. . ... : ... .. . ... : ... .. . ... : ... .. . ... : ... .. . ... : ... .. . ... : ... .. . ...
ROW 0C : ... .. . ... ... : ... .. . ... : ... .. . ... : ... .. . ... : ... .. . ... : G#4 08 . ... : ... .. . ... : ... .. . ...
ROW 0D : ... .. . ... ... : ... .. . ... : ... .. . ... : ... .. . ... : ... .. . ... : ... .. . ... : ... .. . ... : ... .. . ...
ROW 0E : ... .. . ... ... : ... .. . ... : ... .. . ... : ... .. . ... : ... .. . ... : ... .. . ... : ... .. . ... : ... .. . ...
ROW 0F : ... .. . ... ... : ... .. . ... : ... .. . ... : ... .. . ... : ... .. . ... : ... .. . ... : ... .. . ... : ... .. . ...
ROW 10 : ... .. . ... ... : ... .. . ... : ... .. . ... : ... .. . ... : ... .. . ... : ... .. . ... : ... .. . ... : ... .. . ...
ROW 11 : ... .. . ... ... : ... .. . ... : ... .. . ... : ... .. . ... : ... .. . ... : ... .. . ... : ... .. . ... : ... .. . ...
ROW 12 : ... .. . ... ... : ... .. . ... : ... .. . ... : ... .. . ... : ... .. . ... : ... .. . ... : ... .. . ... : ... .. . ...
ROW 13 : ... .. . ... ... : ... .. . ... : ... .. . ... : ... .. . ... : ... .. . ... : ... .. . ... : ... .. . ... : ... .. . ...
ROW 14 : ... .. . ... ... : ... .. . ... : ... .. . ... : ... .. . ... : ... .. . ... : ... .. . ... : ... .. . ... : ... .. . ...
ROW 15 : ... .. . ... ... : ... .. . ... : ... .. . ... : ... .. . ... : ... .. . ... : ... .. . ... : ... .. . ... : ... .. . ...
ROW 16 : ... .. . ... ... : ... .. . ... : ... .. . ... : ... .. . ... : ... .. . ... : ... .. . ... : ... .. . ... : ... .. . ...
ROW 17 : ... .. . ... ... : ... .. . ... : ... .. . ... : ... .. . ... : ... .. . ... : ... .. . ... : ... .. . ... : ... .. . ...
ROW 18 : ... .. . ... ... : ... .. . ... : ... .. . ... : ... .. . ... : ... .. . ... : ... .. . 481 : ... .. . ... : ... .. . ...
ROW 19 : ... .. . ... ... : ... .. . ... : ... .. . ... : ... .. . ... : ... .. . ... : ... .. . 482 : ... .. . ... : ... .. . ...
ROW 1A : ... .. . ... ... : ... .. . ... : ... .. . ... : ... .. . ... : ... .. . ... : ... .. . ... : ... .. . ... : ... .. . ...
ROW 1B : ... .. . ... ... : ... .. . ... : ... .. . ... : ... .. . ... : ... .. . ... : ... .. . ... : ... .. . ... : ... .. . ...
ROW 1C : ... .. . ... ... : ... .. . ... : ... .. . ... : ... .. . ... : ... .. . ... : ... .. . ... : ... .. . ... : ... .. . ...
ROW 1D : ... .. . ... ... : ... .. . ... : ... .. . ... : ... .. . ... : ... .. . ... : ... .. . ... : ... .. . ... : ... .. . ...
ROW 1E : ... .. . ... ... : ... .. . ... : ... .. . ... : ... .. . ... : ... .. . ... : ... .. . ... : ... .. . ... : ... .. . ...
ROW 1F : ... .. . ... ... : ... .. . ... : ... .. . ... : ... .. . ... : ... .. . ... : ... .. . ... : ... .. . ... : ... .. . ...

PATTERN 17
ROW 00 : ... .. . ... ... : ... .. . ... : ... .. . ... : ... .. . ... : ... .. . ... : ... .. . ... : F#3 0B 9 482 : ... .. . ...
ROW 01 : ... .. . ... ... : ... .. . ... : ... .. . ... : ... .. . ... : ... .. . ... : ... .. . ... : ... .. . ... : ... .. . ...
ROW 02 : ... .. . ... ... : ... .. . ... : ... .. . ... : ... .. . ... : ... .. . ... : ... .. . ... : ... .. . ... : ... .. . ...
ROW 03 : ... .. . ... ... : ... .. . ... : ... .. . ... : ... .. . ... : ... .. . ... : ... .. . ... : ... .. . ... : ... .. . ...
ROW 04 : ... .. . ... ... : ... .. . ... : ... .. . ... : ... .. . ... : ... .. . ... : ... .. . ... : ... .. . ... : ... .. . ...
ROW 05 : ... .. . ... ... : ... .. . ... : ... .. . ... : ... .. . ... : ... .. . ... : ... .. . ... : ... .. . ... : ... .. . ...
ROW 06 : ... .. . ... ... : ... .. . ... : ... .. . ... : ... .. . ... : ... .. . ... : ... .. . ... : ... .. . ... : ... .. . ...
ROW 07 : ... .. . ... ... : ... .. . ... : ... .. . ... : ... .. . ... : ... .. . ... : ... .. . ... : ... .. . ... : ... .. . ...
ROW 08 : ... .. . ... ... : ... .. . ... : ... .. . ... : ... .. . ... : ... .. . ... : ... .. . ... : ... .. . ... : ... .. . ...
ROW 09 : ... .. . ... ... : ... .. . ... : ... .. . ... : ... .. . ... : ... .. . ... : ... .. . ... : ... .. . ... : ... .. . ...
ROW 0A : ... .. . ... ... : ... .. . ... : ... .. . ... : ... .. . ... : ... .. . ... : ... .. . ... : ... .. . ... : ... .. . ...
ROW 0B : ... .. . ... ... : ... .. . ... : ... .. . ... : ... .. . ... : ... .. . ... : ... .. . ... : ... .. . ... : ... .. . ...
ROW 0C : ... .. . ... ... : ... .. . ... : ... .. . ... : ... .. . ... : ... .. . ... : ... .. . ... : ... .. . ... : ... .. . ...
ROW 0D : ... .. . ... ... : ... .. . ... : ... .. . ... : ... .. . ... : ... .. . ... : ... .. . ... : ... .. . ... : ... .. . ...
ROW 0E : ... .. . ... ... : ... .. . ... : ... .. . ... : ... .. . ... : ... .. . ... : ... .. . ... : ... .. . ... : ... .. . ...
ROW 0F : ... .. . ... ... : ... .. . ... : ... .. . ... : ... .. . ... : ... .. . ... : ... .. . ... : ... .. . ... : ... .. . ...
ROW 10 : ... .. . ... ... : ... .. . ... : ... .. . ... : ... .. . ... : ... .. . ... : ... .. . ... : ... .. . ... : ... .. . ...
ROW 11 : ... .. . ... ... : ... .. . ... : ... .. . ... : ... .. . ... : ... .. . ... : ... .. . ... : ... .. . ... : ... .. . ...
ROW 12 : ... .. . ... ... : ... .. . ... : ... .. . ... : ... .. . ... : ... .. . ... : ... .. . ... : ... .. . ... : ... .. . ...
ROW 13 : ... .. . ... ... : ... .. . ... : ... .. . ... : ... .. . ... : ... .. . ... : ... .. . ... : ... .. . ... : ... .. . ...
ROW 14 : ... .. . ... ... : ... .. . ... : ... .. . ... : ... .. . ... : ... .. . ... : === .. . 400 : ... .. . ... : ... .. . ...
ROW 15 : ... .. . ... ... : ... .. . ... : ... .. . ... : ... .. . ... : ... .. . ... : ... .. . ... : ... .. . ... : ... .. . ...
ROW 16 : ... .. . ... ... : ... .. . ... : ... .. . ... : ... .. . ... : ... .. . ... : ... .. . ... : ... .. . ... : ... .. . ...
ROW 17 : ... .. . ... ... : ... .. . ... : ... .. . ... : ... .. . ... : ... .. . ... : ... .. . ... : ... .. . ... : ... .. . ...
ROW 18 : ... .. . ... ... : ... .. . ... : ... .. . ... : ... .. . ... : ... .. . ... : D#4 08 . ... : ... .. . ... : ... .. . ...
ROW 19 : ... .. . ... ... : ... .. . ... : ... .. . ... : ... .. . ... : ... .. . ... : ... .. . ... : ... .. . ... : ... .. . ...
ROW 1A : ... .. . ... ... : ... .. . ... : ... .. . ... : ... .. . ... : ... .. . ... : ... .. . ... : ... .. . ... : ... .. . ...
ROW 1B : ... .. . ... ... : ... .. . ... : ... .. . ... : ... .. . ... : ... .. . ... : ... .. . ... : ... .. . ... : ... .. . ...
ROW 1C : ... .. . ... ... : ... .. . ... : ... .. . ... : ... .. . ... : ... .. . ... : ... .. . ... : ... .. . ... : ... .. . ...
ROW 1D : ... .. . ... ... : ... .. . ... : ... .. . ... : ... .. . ... : ... .. . ... : ... .. . ... : ... .. . ... : ... .. . ...
ROW 1E : ... .. . ... ... : ... .. . ... : ... .. . ... : ... .. . ... : ... .. . ... : ... .. . ... : ... .. . ... : ... .. . ...
ROW 1F : ... .. . ... ... : ... .. . ... : ... .. . ... : ... .. . ... : ... .. . ... : ... .. . ... : ... .. . ... : ... .. . ...

PATTERN 18
ROW 00 : ... .. . ... ... : ... .. . ... : ... .. . ... : ... .. . ... : ... .. . ... : ... .. . ... : ... .. . ... : ... .. . ...
ROW 01 : ... .. . ... ... : ... .. . ... : ... .. . ... : ... .. . ... : ... .. . ... : ... .. . ... : ... .. . ... : ... .. . ...
ROW 02 : ... .. . ... ... : ... .. . ... : ... .. . ... : ... .. . ... : ... .. . ... : ... .. . ... : ... .. . ... : ... .. . ...
ROW 03 : ... .. . ... ... : ... .. . ... : ... .. . ... : ... .. . ... : ... .. . ... : ... .. . ... : ... .. . ... : ... .. . ...
ROW 04 : ... .. . ... ... : ... .. . ... : ... .. . ... : ... .. . ... : ... .. . ... : ... .. . ... : ... .. . ... : ... .. . ...
ROW 05 : ... .. . ... ... : ... .. . ... : ... .. . ... : ... .. . ... : ... .. . ... : ... .. . ... : ... .. . ... : ... .. . ...
ROW 06 : ... .. . ... ... : ... .. . ... : ... .. . ... : ... .. . ... : ... .. . ... : ... .. . ... : ... .. . ... : ... .. . ...
ROW 07 : ... .. . ... ... : ... .. . ... : ... .. . ... : ... .. . ... : ... .. . ... : ... .. . ... : ... .. . ... : ... .. . ...
ROW 08 : ... .. . ... ... : ... .. . ... : ... .. . ... : ... .. . ... : ... .. . ... : ... .. . ... : ... .. . ... : ... .. . ...
ROW 09 : ... .. . ... ... : ... .. . ... : ... .. . ... : ... .. . ... : ... .. . ... : ... .. . ... : ... .. . ... : ... .. . ...
ROW 0A : ... .. . ... ... : ... .. . ... : ... .. . ... : ... .. . ... : ... .. . ... : ... .. . ... : ... .. . ... : ... .. . ...
ROW 0B : ... .. . ... ... : ... .. . ... : ... .. . ... : ... .. . ... : ... .. . ... : ... .. . ... : ... .. . ... : ... .. . ...
ROW 0C : ... .. . ... ... : ... .. . ... : ... .. . ... : ... .. . ... : ... .. . ... : ... .. . ... : ... .. . ... : ... .. . ...
ROW 0D : ... .. . ... ... : ... .. . ... : ... .. . ... : ... .. . ... : ... .. . ... : ... .. . ... : ... .. . ... : ... .. . ...
ROW 0E : ... .. . ... ... : ... .. . ... : ... .. . ... : ... .. . ... : ... .. . ... : ... .. . ... : ... .. . ... : ... .. . ...
ROW 0F : ... .. . ... ... : ... .. . ... : ... .. . ... : ... .. . ... : ... .. . ... : ... .. . ... : ... .. . ... : ... .. . ...
ROW 10 : ... .. . ... ... : ... .. . ... : ... .. . ... : ... .. . ... : ... .. . ... : ... .. . ... : ... .. . ... : ... .. . ...
ROW 11 : ... .. . ... ... : ... .. . ... : ... .. . ... : ... .. . ... : ... .. . ... : ... .. . ... : ... .. . ... : ... .. . ...
ROW 12 : ... .. . ... ... : ... .. . ... : ... .. . ... : ... .. . ... : ... .. . ... : ... .. . ... : ... .. . ... : ... .. . ...
ROW 13 : ... .. . ... ... : ... .. . ... : ... .. . ... : ... .. . ... : ... .. . ... : ... .. . ... : ... .. . ... : ... .. . ...
ROW 14 : ... .. . ... ... : ... .. . ... : ... .. . ... : ... .. . ... : ... .. . ... : === .. . 400 : ... .. . ... : ... .. . ...
ROW 15 : ... .. . ... ... : ... .. . ... : ... .. . ... : ... .. . ... : ... .. . ... : ... .. . ... : ... .. . ... : ... .. . ...
ROW 16 : ... .. . ... ... : ... .. . ... : ... .. . ... : ... .. . ... : ... .. . ... : ... .. . ... : ... .. . ... : ... .. . ...
ROW 17 : ... .. . ... ... : ... .. . ... : ... .. . ... : ... .. . ... : ... .. . ... : ... .. . ... : ... .. . ... : ... .. . ...
ROW 18 : ... .. . ... ... : ... .. . ... : ... .. . ... : ... .. . ... : ... .. . ... : G#3 09 . ... : ... .. . ... : ... .. . ...
ROW 19 : ... .. . ... ... : ... .. . ... : ... .. . ... : ... .. . ... : ... .. . ... : ... .. . ... : ... .. . ... : ... .. . ...
ROW 1A : ... .. . ... ... : ... .. . ... : ... .. . ... : ... .. . ... : ... .. . ... : ... .. . ... : ... .. . ... : ... .. . ...
ROW 1B : ... .. . ... ... : ... .. . ... : ... .. . ... : ... .. . ... : ... .. . ... : ... .. . ... : ... .. . ... : ... .. . ...
ROW 1C : ... .. . ... ... : ... .. . ... : ... .. . ... : ... .. . ... : ... .. . ... : B-3 09 . ... : ... .. . ... : ... .. . ...
ROW 1D : ... .. . ... ... : ... .. . ... : ... .. . ... : ... .. . ... : ... .. . ... : ... .. . ... : ... .. . ... : ... .. . ...
ROW 1E : ... .. . ... ... : ... .. . ... : ... .. . ... : ... .. . ... : ... .. . ... : ... .. . ... : ... .. . ... : ... .. . ...
ROW 1F : ... .. . ... ... : ... .. . ... : ... .. . ... : ... .. . ... : ... .. . ... : ... .. . ... : ... .. . ... : ... .. . ...

PATTERN 19
ROW 00 : ... .. . ... ... : ... .. . ... : ... .. . ... : ... .. . ... : ... .. . ... : D#4 09 . ... : ... .. . ... : ... .. . ...
ROW 01 : ... .. . ... ... : ... .. . ... : ... .. . ... : ... .. . ... : ... .. . ... : ... .. . ... : ... .. . ... : ... .. . ...
ROW 02 : ... .. . ... ... : ... .. . ... : ... .. . ... : ... .. . ... : ... .. . ... : ... .. . ... : ... .. . ... : ... .. . ...
ROW 03 : ... .. . ... ... : ... .. . ... : ... .. . ... : ... .. . ... : ... .. . ... : ... .. . ... : ... .. . ... : ... .. . ...
ROW 04 : ... .. . ... ... : ... .. . ... : ... .. . ... : ... .. . ... : ... .. . ... : C#4 09 . ... : ... .. . ... : ... .. . ...
ROW 05 : ... .. . ... ... : ... .. . ... : ... .. . ... : ... .. . ... : ... .. . ... : ... .. . ... : ... .. . ... : ... .. . ...
ROW 06 : ... .. . ... ... : ... .. . ... : ... .. . ... : ... .. . ... : ... .. . ... : ... .. . ... : ... .. . ... : ... .. . ...
ROW 07 : ... .. . ... ... : ... .. . ... : ... .. . ... : ... .. . ... : ... .. . ... : ... .. . ... : ... .. . ... : ... .. . ...
ROW 08 : ... .. . ... ... : ... .. . ... : ... .. . ... : ... .. . ... : ... .. . ... : D#4 09 . ... : ... .. . ... : ... .. . ...
ROW 09 : ... .. . ... ... : ... .. . ... : ... .. . ... : ... .. . ... : ... .. . ... : ... .. . ... : ... .. . ... : ... .. . ...
ROW 0A : ... .. . ... ... : ... .. . ... : ... .. . ... : ... .. . ... : ... .. . ... : ... .. . ... : ... .. . ... : ... .. . ...
ROW 0B : ... .. . ... ... : ... .. . ... : ... .. . ... : ... .. . ... : ... .. . ... : ... .. . ... : ... .. . ... : ... .. . ...
ROW 0C : ... .. . ... ... : ... .. . ... : ... .. . ... : ... .. . ... : ... .. . ... : C#4 09 . ... : ... .. . ... : ... .. . ...
ROW 0D : ... .. . ... ... : ... .. . ... : ... .. . ... : ... .. . ... : ... .. . ... : ... .. . ... : ... .. . ... : ... .. . ...
ROW 0E : ... .. . ... ... : ... .. . ... : ... .. . ... : ... .. . ... : ... .. . ... : ... .. . ... : ... .. . ... : ... .. . ...
ROW 0F : ... .. . ... ... : ... .. . ... : ... .. . ... : ... .. . ... : ... .. . ... : ... .. . ... : ... .. . ... : ... .. . ...
ROW 10 : ... .. . ... ... : ... .. . ... : ... .. . ... : ... .. . ... : ... .. . ... : === .. . ... : ... .. . ... : ... .. . ...
ROW 11 : ... .. . ... ... : ... .. . ... : ... .. . ... : ... .. . ... : ... .. . ... : ... .. . ... : ... .. . ... : ... .. . ...
ROW 12 : ... .. . ... ... : ... .. . ... : ... .. . ... : ... .. . ... : ... .. . ... : ... .. . ... : ... .. . ... : ... .. . ...
ROW 13 : ... .. . ... ... : ... .. . ... : ... .. . ... : ... .. . ... : ... .. . ... : ... .. . ... : ... .. . ... : ... .. . ...
ROW 14 : ... .. . ... ... : ... .. . ... : ... .. . ... : ... .. . ... : ... .. . ... : B-3 09 . ... : ... .. . ... : ... .. . ...
ROW 15 : ... .. . ... ... : ... .. . ... : ... .. . ... : ... .. . ... : ... .. . ... : ... .. . ... : ... .. . ... : ... .. . ...
ROW 16 : ... .. . ... ... : ... .. . ... : ... .. . ... : ... .. . ... : ... .. . ... : ... .. . ... : ... .. . ... : ... .. . ...
ROW 17 : ... .. . ... ... : ... .. . ... : ... .. . ... : ... .. . ... : ... .. . ... : ... .. . ... : ... .. . ... : ... .. . ...
ROW 18 : ... .. . ... ... : ... .. . ... : ... .. . ... : ... .. . ... : ... .. . ... : === .. . ... : ... .. . ... : ... .. . ...
ROW 19 : ... .. . ... ... : ... .. . ... : ... .. . ... : ... .. . ... : ... .. . ... : ... .. . ... : ... .. . ... : ... .. . ...
ROW 1A : ... .. . ... ... : ... .. . ... : ... .. . ... : ... .. . ... : ... .. . ... : ... .. . ... : ... .. . ... : ... .. . ...
ROW 1B : ... .. . ... ... : ... .. . ... : ... .. . ... : ... .. . ... : ... .. . ... : ... .. . ... : ... .. . ... : ... .. . ...
ROW 1C : ... .. . ... ... : ... .. . ... : ... .. . ... : ... .. . ... : ... .. . ... : D#4 09 . ... : ... .. . ... : ... .. . ...
ROW 1D : ... .. . ... ... : ... .. . ... : ... .. . ... : ... .. . ... : ... .. . ... : ... .. . ... : ... .. . ... : ... .. . ...
ROW 1E : ... .. . ... ... : ... .. . ... : ... .. . ... : ... .. . ... : ... .. . ... : ... .. . ... : ... .. . ... : ... .. . ...
ROW 1F : ... .. . ... ... : ... .. . ... : ... .. . ... : ... .. . ... : ... .. . ... : ... .. . ... : ... .. . ... : ... .. . ...

PATTERN 1A
ROW 00 : ... .. . ... ... : ... .. . ... : ... .. . ... : ... .. . ... : ... .. . ... : ... .. . ... : ... .. . ... : ... .. . ...
ROW 01 : ... .. . ... ... : ... .. . ... : ... .. . ... : ... .. . ... : ... .. . ... : ... .. . ... : ... .. . ... : ... .. . ...
ROW 02 : ... .. . ... ... : ... .. . ... : ... .. . ... : ... .. . ... : ... .. . ... : ... .. . ... : ... .. . ... : ... .. . ...
ROW 03 : ... .. . ... ... : ... .. . ... : ... .. . ... : ... .. . ... : ... .. . ... : ... .. . ... : ... .. . ... : ... .. . ...
ROW 04 : ... .. . ... ... : ... .. . ... : ... .. . ... : ... .. . ... : ... .. . ... : ... .. . ... : ... .. . ... : ... .. . ...
ROW 05 : ... .. . ... ... : ... .. . ... : ... .. . ... : ... .. . ... : ... .. . ... : ... .. . ... : ... .. . ... : ... .. . ...
ROW 06 : ... .. . ... ... : ... .. . ... : ... .. . ... : ... .. . ... : ... .. . ... : ... .. . ... : ... .. . ... : ... .. . ...
ROW 07 : ... .. . ... ... : ... .. . ... : ... .. . ... : ... .. . ... : ... .. . ... : ... .. . ... : ... .. . ... : ... .. . ...
ROW 08 : ... .. . ... ... : ... .. . ... : ... .. . ... : ... .. . ... : ... .. . ... : ... .. . 481 : ... .. . ... : ... .. . ...
ROW 09 : ... .. . ... ... : ... .. . ... : ... .. . ... : ... .. . ... : ... .. . ... : ... .. . 482 : ... .. . ... : ... .. . ...
ROW 0A : ... .. . ... ... : ... .. . ... : ... .. . ... : ... .. . ... : ... .. . ... : ... .. . ... : ... .. . ... : ... .. . ...
ROW 0B : ... .. . ... ... : ... .. . ... : ... .. . ... : ... .. . ... : ... .. . ... : ... .. . ... : ... .. . ... : ... .. . ...
ROW 0C : ... .. . ... ... : ... .. . ... : ... .. . ... : ... .. . ... : ... .. . ... : ... .. . ... : ... .. . ... : ... .. . ...
ROW 0D : ... .. . ... ... : ... .. . ... : ... .. . ... : ... .. . ... : ... .. . ... : ... .. . ... : ... .. . ... : ... .. . ...
ROW 0E : ... .. . ... ... : ... .. . ... : ... .. . ... : ... .. . ... : ... .. . ... : ... .. . ... : ... .. . ... : ... .. . ...
ROW 0F : ... .. . ... ... : ... .. . ... : ... .. . ... : ... .. . ... : ... .. . ... : ... .. . ... : ... .. . ... : ... .. . ...
ROW 10 : ... .. . ... ... : ... .. . ... : ... .. . ... : ... .. . ... : ... .. . ... : ... .. . ... : ... .. . ... : ... .. . ...
ROW 11 : ... .. . ... ... : ... .. . ... : ... .. . ... : ... .. . ... : ... .. . ... : ... .. . ... : ... .. . ... : ... .. . ...
ROW 12 : ... .. . ... ... : ... .. . ... : ... .. . ... : ... .. . ... : ... .. . ... : ... .. . ... : ... .. . ... : ... .. . ...
ROW 13 : ... .. . ... ... : ... .. . ... : ... .. . ... : ... .. . ... : ... .. . ... : ... .. . ... : ... .. . ... : ... .. . ...
ROW 14 : ... .. . ... ... : ... .. . ... : ... .. . ... : ... .. . ... : ... .. . ... : === .. . 400 : ... .. . ... : ... .. . ...
ROW 15 : ... .. . ... ... : ... .. . ... : ... .. . ... : ... .. . ... : ... .. . ... : ... .. . ... : ... .. . ... : ... .. . ...
ROW 16 : ... .. . ... ... : ... .. . ... : ... .. . ... : ... .. . ... : ... .. . ... : ... .. . ... : ... .. . ... : ... .. . ...
ROW 17 : ... .. . ... ... : ... .. . ... : ... .. . ... : ... .. . ... : ... .. . ... : ... .. . ... : ... .. . ... : ... .. . ...
ROW 18 : ... .. . ... ... : ... .. . ... : ... .. . ... : ... .. . ... : ... .. . ... : G#3 09 . ... : ... .. . ... : ... .. . ...
ROW 19 : ... .. . ... ... : ... .. . ... : ... .. . ... : ... .. . ... : ... .. . ... : ... .. . ... : ... .. . ... : ... .. . ...
ROW 1A : ... .. . ... ... : ... .. . ... : ... .. . ... : ... .. . ... : ... .. . ... : ... .. . ... : ... .. . ... : ... .. . ...
ROW 1B : ... .. . ... ... : ... .. . ... : ... .. . ... : ... .. . ... : ... .. . ... : ... .. . ... : ... .. . ... : ... .. . ...
ROW 1C : ... .. . ... ... : ... .. . ... : ... .. . ... : ... .. . ... : ... .. . ... : B-3 09 . ... : ... .. . ... : ... .. . ...
ROW 1D : ... .. . ... ... : ... .. . ... : ... .. . ... : ... .. . ... : ... .. . ... : ... .. . ... : ... .. . ... : ... .. . ...
ROW 1E : ... .. . ... ... : ... .. . ... : ... .. . ... : ... .. . ... : ... .. . ... : ... .. . ... : ... .. . ... : ... .. . ...
ROW 1F : ... .. . ... ... : ... .. . ... : ... .. . ... : ... .. . ... : ... .. . ... : ... .. . ... : ... .. . ... : ... .. . ...

PATTERN 1B
ROW 00 : ... .. . ... ... : ... .. . ... : ... .. . ... : ... .. . ... : ... .. . ... : D#4 09 . ... : ... .. . ... : ... .. . ...
ROW 01 : ... .. . ... ... : ... .. . ... : ... .. . ... : ... .. . ... : ... .. . ... : ... .. . ... : ... .. . ... : ... .. . ...
ROW 02 : ... .. . ... ... : ... .. . ... : ... .. . ... : ... .. . ... : ... .. . ... : ... .. . ... : ... .. . ... : ... .. . ...
ROW 03 : ... .. . ... ... : ... .. . ... : ... .. . ... : ... .. . ... : ... .. . ... : ... .. . ... : ... .. . ... : ... .. . ...
ROW 04 : ... .. . ... ... : ... .. . ... : ... .. . ... : ... .. . ... : ... .. . ... : C#4 09 . ... : ... .. . ... : ... .. . ...
ROW 05 : ... .. . ... ... : ... .. . ... : ... .. . ... : ... .. . ... : ... .. . ... : ... .. . ... : ... .. . ... : ... .. . ...
ROW 06 : ... .. . ... ... : ... .. . ... : ... .. . ... : ... .. . ... : ... .. . ... : ... .. . ... : ... .. . ... : ... .. . ...
ROW 07 : ... .. . ... ... : ... .. . ... : ... .. . ... : ... .. . ... : ... .. . ... : ... .. . ... : ... .. . ... : ... .. . ...
ROW 08 : ... .. . ... ... : ... .. . ... : ... .. . ... : ... .. . ... : ... .. . ... : D#4 09 . ... : ... .. . ... : ... .. . ...
ROW 09 : ... .. . ... ... : ... .. . ... : ... .. . ... : ... .. . ... : ... .. . ... : ... .. . ... : ... .. . ... : ... .. . ...
ROW 0A : ... .. . ... ... : ... .. . ... : ... .. . ... : ... .. . ... : ... .. . ... : ... .. . ... : ... .. . ... : ... .. . ...
ROW 0B : ... .. . ... ... : ... .. . ... : ... .. . ... : ... .. . ... : ... .. . ... : ... .. . ... : ... .. . ... : ... .. . ...
ROW 0C : ... .. . ... ... : ... .. . ... : ... .. . ... : ... .. . ... : ... .. . ... : C#4 09 . ... : ... .. . ... : ... .. . ...
ROW 0D : ... .. . ... ... : ... .. . ... : ... .. . ... : ... .. . ... : ... .. . ... : ... .. . ... : ... .. . ... : ... .. . ...
ROW 0E : ... .. . ... ... : ... .. . ... : ... .. . ... : ... .. . ... : ... .. . ... : ... .. . ... : ... .. . ... : ... .. . ...
ROW 0F : ... .. . ... ... : ... .. . ... : ... .. . ... : ... .. . ... : ... .. . ... : ... .. . ... : ... .. . ... : ... .. . ...
ROW 10 : ... .. . ... ... : ... .. . ... : ... .. . ... : ... .. . ... : ... .. . ... : === .. . ... : ... .. . ... : ... .. . ...
ROW 11 : ... .. . ... ... : ... .. . ... : ... .. . ... : ... .. . ... : ... .. . ... : ... .. . ... : ... .. . ... : ... .. . ...
ROW 12 : ... .. . ... ... : ... .. . ... : ... .. . ... : ... .. . ... : ... .. . ... : ... .. . ... : ... .. . ... : ... .. . ...
ROW 13 : ... .. . ... ... : ... .. . ... : ... .. . ... : ... .. . ... : ... .. . ... : ... .. . ... : ... .. . ... : ... .. . ...
ROW 14 : ... .. . ... ... : ... .. . ... : ... .. . ... : ... .. . ... : ... .. . ... : F#4 09 . ... : ... .. . ... : ... .. . ...
ROW 15 : ... .. . ... ... : ... .. . ... : ... .. . ... : ... .. . ... : ... .. . ... : ... .. . ... : ... .. . ... : ... .. . ...
ROW 16 : ... .. . ... ... : ... .. . ... : ... .. . ... : ... .. . ... : ... .. . ... : ... .. . ... : ... .. . ... : ... .. . ...
ROW 17 : ... .. . ... ... : ... .. . ... : ... .. . ... : ... .. . ... : ... .. . ... : ... .. . ... : ... .. . ... : ... .. . ...
ROW 18 : ... .. . ... ... : ... .. . ... : ... .. . ... : ... .. . ... : ... .. . ... : === .. . ... : ... .. . ... : ... .. . ...
ROW 19 : ... .. . ... ... : ... .. . ... : ... .. . ... : ... .. . ... : ... .. . ... : ... .. . ... : ... .. . ... : ... .. . ...
ROW 1A : ... .. . ... ... : ... .. . ... : ... .. . ... : ... .. . ... : ... .. . ... : ... .. . ... : ... .. . ... : ... .. . ...
ROW 1B : ... .. . ... ... : ... .. . ... : ... .. . ... : ... .. . ... : ... .. . ... : ... .. . ... : ... .. . ... : ... .. . ...
ROW 1C : ... .. . ... ... : ... .. . ... : ... .. . ... : ... .. . ... : ... .. . ... : D#4 09 . ... : ... .. . ... : ... .. . ...
ROW 1D : ... .. . ... ... : ... .. . ... : ... .. . ... : ... .. . ... : ... .. . ... : ... .. . ... : ... .. . ... : ... .. . ...
ROW 1E : ... .. . ... ... : ... .. . ... : ... .. . ... : ... .. . ... : ... .. . ... : ... .. . ... : ... .. . ... : ... .. . ...
ROW 1F : ... .. . ... ... : ... .. . ... : ... .. . ... : ... .. . ... : ... .. . ... : ... .. . ... : ... .. . ... : ... .. . ...

PATTERN 1C
ROW 00 : ... .. . ... ... : ... .. . ... : ... .. . ... : ... .. . ... : ... .. . ... : D#4 09 . ... : ... .. . ... : ... .. . ...
ROW 01 : ... .. . ... ... : ... .. . ... : ... .. . ... : ... .. . ... : ... .. . ... : ... .. . ... : ... .. . ... : ... .. . ...
ROW 02 : ... .. . ... ... : ... .. . ... : ... .. . ... : ... .. . ... : ... .. . ... : ... .. . ... : ... .. . ... : ... .. . ...
ROW 03 : ... .. . ... ... : ... .. . ... : ... .. . ... : ... .. . ... : ... .. . ... : ... .. . ... : ... .. . ... : ... .. . ...
ROW 04 : ... .. . ... ... : ... .. . ... : ... .. . ... : ... .. . ... : ... .. . ... : C#4 09 . ... : ... .. . ... : ... .. . ...
ROW 05 : ... .. . ... ... : ... .. . ... : ... .. . ... : ... .. . ... : ... .. . ... : ... .. . ... : ... .. . ... : ... .. . ...
ROW 06 : ... .. . ... ... : ... .. . ... : ... .. . ... : ... .. . ... : ... .. . ... : ... .. . ... : ... .. . ... : ... .. . ...
ROW 07 : ... .. . ... ... : ... .. . ... : ... .. . ... : ... .. . ... : ... .. . ... : ... .. . ... : ... .. . ... : ... .. . ...
ROW 08 : ... .. . ... ... : ... .. . ... : ... .. . ... : ... .. . ... : ... .. . ... : D#4 09 . ... : ... .. . ... : ... .. . ...
ROW 09 : ... .. . ... ... : ... .. . ... : ... .. . ... : ... .. . ... : ... .. . ... : ... .. . ... : ... .. . ... : ... .. . ...
ROW 0A : ... .. . ... ... : ... .. . ... : ... .. . ... : ... .. . ... : ... .. . ... : ... .. . ... : ... .. . ... : ... .. . ...
ROW 0B : ... .. . ... ... : ... .. . ... : ... .. . ... : ... .. . ... : ... .. . ... : ... .. . ... : ... .. . ... : ... .. . ...
ROW 0C : ... .. . ... ... : ... .. . ... : ... .. . ... : ... .. . ... : ... .. . ... : C#4 09 . ... : ... .. . ... : ... .. . ...
ROW 0D : ... .. . ... ... : ... .. . ... : ... .. . ... : ... .. . ... : ... .. . ... : ... .. . ... : ... .. . ... : ... .. . ...
ROW 0E : ... .. . ... ... : ... .. . ... : ... .. . ... : ... .. . ... : ... .. . ... : ... .. . ... : ... .. . ... : ... .. . ...
ROW 0F : ... .. . ... ... : ... .. . ... : ... .. . ... : ... .. . ... : ... .. . ... : ... .. . ... : ... .. . ... : ... .. . ...
ROW 10 : ... .. . ... ... : ... .. . ... : ... .. . ... : ... .. . ... : ... .. . ... : === .. . ... : ... .. . ... : ... .. . ...
ROW 11 : ... .. . ... ... : ... .. . ... : ... .. . ... : ... .. . ... : ... .. . ... : ... .. . ... : ... .. . ... : ... .. . ...
ROW 12 : ... .. . ... ... : ... .. . ... : ... .. . ... : ... .. . ... : ... .. . ... : ... .. . ... : ... .. . ... : ... .. . ...
ROW 13 : ... .. . ... ... : ... .. . ... : ... .. . ... : ... .. . ... : ... .. . ... : ... .. . ... : ... .. . ... : ... .. . ...
ROW 14 : ... .. . ... ... : ... .. . ... : ... .. . ... : ... .. . ... : ... .. . ... : D#4 09 . ... : ... .. . ... : ... .. . ...
ROW 15 : ... .. . ... ... : ... .. . ... : ... .. . ... : ... .. . ... : ... .. . ... : ... .. . ... : ... .. . ... : ... .. . ...
ROW 16 : ... .. . ... ... : ... .. . ... : ... .. . ... : ... .. . ... : ... .. . ... : ... .. . ... : ... .. . ... : ... .. . ...
ROW 17 : ... .. . ... ... : ... .. . ... : ... .. . ... : ... .. . ... : ... .. . ... : ... .. . ... : ... .. . ... : ... .. . ...
ROW 18 : ... .. . ... ... : ... .. . ... : ... .. . ... : ... .. . ... : ... .. . ... : === .. . ... : ... .. . ... : ... .. . ...
ROW 19 : ... .. . ... ... : ... .. . ... : ... .. . ... : ... .. . ... : ... .. . ... : ... .. . ... : ... .. . ... : ... .. . ...
ROW 1A : ... .. . ... ... : ... .. . ... : ... .. . ... : ... .. . ... : ... .. . ... : ... .. . ... : ... .. . ... : ... .. . ...
ROW 1B : ... .. . ... ... : ... .. . ... : ... .. . ... : ... .. . ... : ... .. . ... : ... .. . ... : ... .. . ... : ... .. . ...
ROW 1C : ... .. . ... ... : ... .. . ... : ... .. . ... : ... .. . ... : ... .. . ... : F#4 09 . ... : ... .. . ... : ... .. . ...
ROW 1D : ... .. . ... ... : ... .. . ... : ... .. . ... : ... .. . ... : ... .. . ... : ... .. . ... : ... .. . ... : ... .. . ...
ROW 1E : ... .. . ... ... : ... .. . ... : ... .. . ... : ... .. . ... : ... .. . ... : ... .. . ... : ... .. . ... : ... .. . ...
ROW 1F : ... .. . ... ... : ... .. . ... : ... .. . ... : ... .. . ... : ... .. . ... : ... .. . ... : ... .. . ... : ... .. . ...

PATTERN 1D
ROW 00 : ... .. . ... ... : ... .. . ... : ... .. . ... : ... .. . ... : ... .. . ... : ... .. . ... : ... .. . ... : ... .. . ...
ROW 01 : ... .. . ... ... : ... .. . ... : ... .. . ... : ... .. . ... : ... .. . ... : ... .. . ... : ... .. . ... : ... .. . ...
ROW 02 : ... .. . ... ... : ... .. . ... : ... .. . ... : ... .. . ... : ... .. . ... : ... .. . ... : ... .. . ... : ... .. . ...
ROW 03 : ... .. . ... ... : ... .. . ... : ... .. . ... : ... .. . ... : ... .. . ... : ... .. . ... : ... .. . ... : ... .. . ...
ROW 04 : ... .. . ... ... : ... .. . ... : ... .. . ... : ... .. . ... : ... .. . ... : ... .. . ... : ... .. . ... : ... .. . ...
ROW 05 : ... .. . ... ... : ... .. . ... : ... .. . ... : ... .. . ... : ... .. . ... : ... .. . ... : ... .. . ... : ... .. . ...
ROW 06 : ... .. . ... ... : ... .. . ... : ... .. . ... : ... .. . ... : ... .. . ... : ... .. . ... : ... .. . ... : ... .. . ...
ROW 07 : ... .. . ... ... : ... .. . ... : ... .. . ... : ... .. . ... : ... .. . ... : ... .. . ... : ... .. . ... : ... .. . ...
ROW 08 : ... .. . ... ... : ... .. . ... : ... .. . ... : ... .. . ... : ... .. . ... : D#4 09 . ... : ... .. . ... : ... .. . ...
ROW 09 : ... .. . ... ... : ... .. . ... : ... .. . ... : ... .. . ... : ... .. . ... : ... .. . ... : ... .. . ... : ... .. . ...
ROW 0A : ... .. . ... ... : ... .. . ... : ... .. . ... : ... .. . ... : ... .. . ... : ... .. . ... : ... .. . ... : ... .. . ...
ROW 0B : ... .. . ... ... : ... .. . ... : ... .. . ... : ... .. . ... : ... .. . ... : ... .. . ... : ... .. . ... : ... .. . ...
ROW 0C : ... .. . ... ... : ... .. . ... : ... .. . ... : ... .. . ... : ... .. . ... : ... .. . ... : ... .. . ... : ... .. . ...
ROW 0D : ... .. . ... ... : ... .. . ... : ... .. . ... : ... .. . ... : ... .. . ... : ... .. . ... : ... .. . ... : ... .. . ...
ROW 0E : ... .. . ... ... : ... .. . ... : ... .. . ... : ... .. . ... : ... .. . ... : ... .. . ... : ... .. . ... : ... .. . ...
ROW 0F : ... .. . ... ... : ... .. . ... : ... .. . ... : ... .. . ... : ... .. . ... : ... .. . ... : ... .. . ... : ... .. . ...
ROW 10 : ... .. . ... ... : ... .. . ... : ... .. . ... : ... .. . ... : ... .. . ... : C#4 09 . ... : ... .. . ... : ... .. . ...
ROW 11 : ... .. . ... ... : ... .. . ... : ... .. . ... : ... .. . ... : ... .. . ... : ... .. . ... : ... .. . ... : ... .. . ...
ROW 12 : ... .. . ... ... : ... .. . ... : ... .. . ... : ... .. . ... : ... .. . ... : ... .. . ... : ... .. . ... : ... .. . ...
ROW 13 : ... .. . ... ... : ... .. . ... : ... .. . ... : ... .. . ... : ... .. . ... : ... .. . ... : ... .. . ... : ... .. . ...
ROW 14 : ... .. . ... ... : ... .. . ... : ... .. . ... : ... .. . ... : ... .. . ... : ... .. . ... : ... .. . ... : ... .. . ...
ROW 15 : ... .. . ... ... : ... .. . ... : ... .. . ... : ... .. . ... : ... .. . ... : ... .. . ... : ... .. . ... : ... .. . ...
ROW 16 : ... .. . ... ... : ... .. . ... : ... .. . ... : ... .. . ... : ... .. . ... : ... .. . ... : ... .. . ... : ... .. . ...
ROW 17 : ... .. . ... ... : ... .. . ... : ... .. . ... : ... .. . ... : ... .. . ... : ... .. . ... : ... .. . ... : ... .. . ...
ROW 18 : ... .. . ... ... : ... .. . ... : ... .. . ... : ... .. . ... : ... .. . ... : D#4 09 . ... : ... .. . ... : ... .. . ...
ROW 19 : ... .. . ... ... : ... .. . ... : ... .. . ... : ... .. . ... : ... .. . ... : ... .. . ... : ... .. . ... : ... .. . ...
ROW 1A : ... .. . ... ... : ... .. . ... : ... .. . ... : ... .. . ... : ... .. . ... : ... .. . ... : ... .. . ... : ... .. . ...
ROW 1B : ... .. . ... ... : ... .. . ... : ... .. . ... : ... .. . ... : ... .. . ... : ... .. . ... : ... .. . ... : ... .. . ...
ROW 1C : ... .. . ... ... : ... .. . ... : ... .. . ... : ... .. . ... : ... .. . ... : ... .. . ... : ... .. . ... : ... .. . ...
ROW 1D : ... .. . ... ... : ... .. . ... : ... .. . ... : ... .. . ... : ... .. . ... : ... .. . ... : ... .. . ... : ... .. . ...
ROW 1E : ... .. . ... ... : ... .. . ... : ... .. . ... : ... .. . ... : ... .. . ... : ... .. . ... : ... .. . ... : ... .. . ...
ROW 1F : ... .. . ... ... : ... .. . ... : ... .. . ... : ... .. . ... : ... .. . ... : ... .. . ... : === .. . ... : ... .. . ...

PATTERN 1E
ROW 00 : ... .. . ... ... : ... .. . ... : ... .. . ... : ... .. . ... : ... .. . ... : B-3 09 . ... : ... .. . ... : ... .. . ...
ROW 01 : ... .. . ... ... : ... .. . ... : ... .. . ... : ... .. . ... : ... .. . ... : ... .. . ... : ... .. . ... : ... .. . ...
ROW 02 : ... .. . ... ... : ... .. . ... : ... .. . ... : ... .. . ... : ... .. . ... : ... .. . ... : ... .. . ... : ... .. . ...
ROW 03 : ... .. . ... ... : ... .. . ... : ... .. . ... : ... .. . ... : ... .. . ... : ... .. . ... : ... .. . ... : ... .. . ...
ROW 04 : ... .. . ... ... : ... .. . ... : ... .. . ... : ... .. . ... : ... .. . ... : ... .. . ... : ... .. . ... : ... .. . ...
ROW 05 : ... .. . ... ... : ... .. . ... : ... .. . ... : ... .. . ... : ... .. . ... : ... .. . ... : ... .. . ... : ... .. . ...
ROW 06 : ... .. . ... ... : ... .. . ... : ... .. . ... : ... .. . ... : ... .. . ... : ... .. . ... : ... .. . ... : ... .. . ...
ROW 07 : ... .. . ... ... : ... .. . ... : ... .. . ... : ... .. . ... : ... .. . ... : ... .. . ... : ... .. . ... : ... .. . ...
ROW 08 : ... .. . ... ... : ... .. . ... : ... .. . ... : ... .. . ... : ... .. . ... : C#4 09 . ... : ... .. . ... : ... .. . ...
ROW 09 : ... .. . ... ... : ... .. . ... : ... .. . ... : ... .. . ... : ... .. . ... : ... .. . ... : ... .. . ... : ... .. . ...
ROW 0A : ... .. . ... ... : ... .. . ... : ... .. . ... : ... .. . ... : ... .. . ... : ... .. . ... : ... .. . ... : ... .. . ...
ROW 0B : ... .. . ... ... : ... .. . ... : ... .. . ... : ... .. . ... : ... .. . ... : ... .. . ... : ... .. . ... : ... .. . ...
ROW 0C : ... .. . ... ... : ... .. . ... : ... .. . ... : ... .. . ... : ... .. . ... : G#3 09 . ... : ... .. . ... : ... .. . ...
ROW 0D : ... .. . ... ... : ... .. . ... : ... .. . ... : ... .. . ... : ... .. . ... : ... .. . ... : ... .. . ... : ... .. . ...
ROW 0E : ... .. . ... ... : ... .. . ... : ... .. . ... : ... .. . ... : ... .. . ... : ... .. . ... : ... .. . ... : ... .. . ...
ROW 0F : ... .. . ... ... : ... .. . ... : ... .. . ... : ... .. . ... : ... .. . ... : ... .. . ... : ... .. . ... : ... .. . ...
ROW 10 : ... .. . ... ... : ... .. . ... : ... .. . ... : ... .. . ... : ... .. . ... : ... .. . ... : ... .. . ... : ... .. . ...
ROW 11 : ... .. . ... ... : ... .. . ... : ... .. . ... : ... .. . ... : ... .. . ... : ... .. . ... : ... .. . ... : ... .. . ...
ROW 12 : ... .. . ... ... : ... .. . ... : ... .. . ... : ... .. . ... : ... .. . ... : ... .. . ... : ... .. . ... : ... .. . ...
ROW 13 : ... .. . ... ... : ... .. . ... : ... .. . ... : ... .. . ... : ... .. . ... : ... .. . ... : ... .. . ... : ... .. . ...
ROW 14 : ... .. . ... ... : ... .. . ... : ... .. . ... : ... .. . ... : ... .. . ... : ... .. . ... : ... .. . ... : ... .. . ...
ROW 15 : ... .. . ... ... : ... .. . ... : ... .. . ... : ... .. . ... : ... .. . ... : ... .. . ... : ... .. . ... : ... .. . ...
ROW 16 : ... .. . ... ... : ... .. . ... : ... .. . ... : ... .. . ... : ... .. . ... : ... .. . ... : ... .. . ... : ... .. . ...
ROW 17 : ... .. . ... ... : ... .. . ... : ... .. . ... : ... .. . ... : ... .. . ... : ... .. . ... : ... .. . ... : ... .. . ...
ROW 18 : ... .. . ... ... : ... .. . ... : ... .. . ... : ... .. . ... : ... .. . ... : ... .. . 481 : ... .. . ... : ... .. . ...
ROW 19 : ... .. . ... ... : ... .. . ... : ... .. . ... : ... .. . ... : ... .. . ... : ... .. . 482 : ... .. . ... : ... .. . ...
ROW 1A : ... .. . ... ... : ... .. . ... : ... .. . ... : ... .. . ... : ... .. . ... : ... .. . ... : ... .. . ... : ... .. . ...
ROW 1B : ... .. . ... ... : ... .. . ... : ... .. . ... : ... .. . ... : ... .. . ... : ... .. . ... : ... .. . ... : ... .. . ...
ROW 1C : ... .. . ... ... : ... .. . ... : ... .. . ... : ... .. . ... : ... .. . ... : ... .. . ... : ... .. . ... : ... .. . ...
ROW 1D : ... .. . ... ... : ... .. . ... : ... .. . ... : ... .. . ... : ... .. . ... : ... .. . ... : ... .. . ... : ... .. . ...
ROW 1E : ... .. . ... ... : ... .. . ... : ... .. . ... : ... .. . ... : ... .. . ... : ... .. . ... : ... .. . ... : ... .. . ...
ROW 1F : ... .. . ... ... : ... .. . ... : ... .. . ... : ... .. . ... : ... .. . ... : ... .. . ... : ... .. . ... : ... .. . ...

PATTERN 1F
ROW 00 : ... .. . ... ... : ... .. . ... : ... .. . ... : ... .. . ... : ... .. . ... : ... .. . ... : ... .. . ... : ... .. . ...
ROW 01 : ... .. . ... ... : ... .. . ... : ... .. . ... : ... .. . ... : ... .. . ... : ... .. . ... : ... .. . ... : ... .. . ...
ROW 02 : ... .. . ... ... : ... .. . ... : ... .. . ... : ... .. . ... : ... .. . ... : ... .. . ... : ... .. . ... : ... .. . ...
ROW 03 : ... .. . ... ... : ... .. . ... : ... .. . ... : ... .. . ... : ... .. . ... : ... .. . ... : ... .. . ... : ... .. . ...
ROW 04 : ... .. . ... ... : ... .. . ... : ... .. . ... : ... .. . ... : ... .. . ... : ... .. . ... : ... .. . ... : ... .. . ...
ROW 05 : ... .. . ... ... : ... .. . ... : ... .. . ... : ... .. . ... : ... .. . ... : ... .. . ... : ... .. . ... : ... .. . ...
ROW 06 : ... .. . ... ... : ... .. . ... : ... .. . ... : ... .. . ... : ... .. . ... : ... .. . ... : ... .. . ... : ... .. . ...
ROW 07 : ... .. . ... ... : ... .. . ... : ... .. . ... : ... .. . ... : ... .. . ... : ... .. . ... : ... .. . ... : ... .. . ...
ROW 08 : ... .. . ... ... : ... .. . ... : ... .. . ... : ... .. . ... : ... .. . ... : ... .. . ... : ... .. . ... : ... .. . ...
ROW 09 : ... .. . ... ... : ... .. . ... : ... .. . ... : ... .. . ... : ... .. . ... : ... .. . ... : ... .. . ... : ... .. . ...
ROW 0A : ... .. . ... ... : ... .. . ... : ... .. . ... : ... .. . ... : ... .. . ... : ... .. . ... : ... .. . ... : ... .. . ...
ROW 0B : ... .. . ... ... : ... .. . ... : ... .. . ... : ... .. . ... : ... .. . ... : ... .. . ... : ... .. . ... : ... .. . ...
ROW 0C : ... .. . ... ... : ... .. . ... : ... .. . ... : ... .. . ... : ... .. . ... : ... .. . ... : ... .. . ... : ... .. . ...
ROW 0D : ... .. . ... ... : ... .. . ... : ... .. . ... : ... .. . ... : ... .. . ... : ... .. . ... : ... .. . ... : ... .. . ...
ROW 0E : ... .. . ... ... : ... .. . ... : ... .. . ... : ... .. . ... : ... .. . ... : ... .. . ... : ... .. . ... : ... .. . ...
ROW 0F : ... .. . ... ... : ... .. . ... : ... .. . ... : ... .. . ... : ... .. . ... : ... .. . ... : ... .. . ... : ... .. . ...
ROW 10 : ... .. . ... ... : ... .. . ... : ... .. . ... : ... .. . ... : ... .. . ... : ... .. . ... : ... .. . ... : ... .. . ...
ROW 11 : ... .. . ... ... : ... .. . ... : ... .. . ... : ... .. . ... : ... .. . ... : ... .. E ... : ... .. . ... : ... .. . ...
ROW 12 : ... .. . ... ... : ... .. . ... : ... .. . ... : ... .. . ... : ... .. . ... : ... .. D ... : ... .. . ... : ... .. . ...
ROW 13 : ... .. . ... ... : ... .. . ... : ... .. . ... : ... .. . ... : ... .. . ... : ... .. C ... : ... .. . ... : ... .. . ...
ROW 14 : ... .. . ... ... : ... .. . ... : ... .. . ... : ... .. . ... : ... .. . ... : ... .. B ... : ... .. . ... : ... .. . ...
ROW 15 : ... .. . ... ... : ... .. . ... : ... .. . ... : ... .. . ... : ... .. . ... : ... .. A ... : ... .. . ... : ... .. . ...
ROW 16 : ... .. . ... ... : ... .. . ... : ... .. . ... : ... .. . ... : ... .. . ... : ... .. 9 ... : ... .. . ... : ... .. . ...
ROW 17 : ... .. . ... ... : ... .. . ... : ... .. . ... : ... .. . ... : ... .. . ... : ... .. 8 ... : ... .. . ... : ... .. . ...
ROW 18 : ... .. . ... ... : ... .. . ... : ... .. . ... : ... .. . ... : ... .. . ... : ... .. 7 ... : ... .. . ... : ... .. . ...
ROW 19 : ... .. . ... ... : ... .. . ... : ... .. . ... : ... .. . ... : ... .. . ... : ... .. 6 ... : ... .. . ... : ... .. . ...
ROW 1A : ... .. . ... ... : ... .. . ... : ... .. . ... : ... .. . ... : ... .. . ... : ... .. 5 ... : ... .. . ... : ... .. . ...
ROW 1B : ... .. . ... ... : ... .. . ... : ... .. . ... : ... .. . ... : ... .. . ... : ... .. 4 ... : ... .. . ... : ... .. . ...
ROW 1C : ... .. . ... ... : ... .. . ... : ... .. . ... : ... .. . ... : ... .. . ... : ... .. 3 ... : ... .. . ... : ... .. . ...
ROW 1D : ... .. . ... ... : ... .. . ... : ... .. . ... : ... .. . ... : ... .. . ... : ... .. 2 ... : ... .. . ... : ... .. . ...
ROW 1E : ... .. . ... ... : ... .. . ... : ... .. . ... : ... .. . ... : ... .. . ... : ... .. 1 ... : ... .. . ... : ... .. . ...
ROW 1F : ... .. . ... ... : ... .. . ... : ... .. . ... : ... .. . ... : ... .. . ... : === .. 0 400 : ... .. . ... : ... .. . ...

PATTERN 2F
ROW 00 : ... .. . ... ... : ... .. . ... : ... .. . ... : ... .. . ... : ... .. . ... : ... .. . ... : ... .. . ... : ... .. . ...
ROW 01 : ... .. . ... ... : ... .. . ... : ... .. . ... : ... .. . ... : ... .. . ... : ... .. . ... : ... .. . ... : ... .. . ...
ROW 02 : ... .. . ... ... : ... .. . ... : ... .. . ... : ... .. . ... : ... .. . ... : ... .. . ... : ... .. . ... : ... .. . ...
ROW 03 : ... .. . ... ... : ... .. . ... : ... .. . ... : ... .. . ... : ... .. . ... : ... .. . ... : ... .. . ... : ... .. . ...
ROW 04 : ... .. . ... ... : ... .. . ... : ... .. . ... : ... .. . ... : ... .. . ... : ... .. . ... : ... .. . ... : ... .. . ...
ROW 05 : ... .. . ... ... : ... .. . ... : ... .. . ... : ... .. . ... : ... .. . ... : ... .. . ... : ... .. . ... : ... .. . ...
ROW 06 : ... .. . ... ... : ... .. . ... : ... .. . ... : ... .. . ... : ... .. . ... : ... .. . ... : ... .. . ... : ... .. . ...
ROW 07 : ... .. . ... ... : ... .. . ... : ... .. . ... : ... .. . ... : ... .. . ... : ... .. . ... : ... .. . ... : ... .. . ...
ROW 08 : ... .. . ... ... : ... .. . ... : ... .. . ... : ... .. . ... : ... .. . ... : ... .. . ... : ... .. . ... : ... .. . ...
ROW 09 : ... .. . ... ... : ... .. . ... : ... .. . ... : ... .. . ... : ... .. . ... : ... .. . ... : ... .. . ... : ... .. . ...
ROW 0A : ... .. . ... ... : ... .. . ... : ... .. . ... : ... .. . ... : ... .. . ... : ... .. . ... : ... .. . ... : ... .. . ...
ROW 0B : ... .. . ... ... : ... .. . ... : ... .. . ... : ... .. . ... : ... .. . ... : ... .. . ... : ... .. . ... : ... .. . ...
ROW 0C : ... .. . ... ... : ... .. . ... : ... .. . ... : ... .. . ... : ... .. . ... : ... .. . ... : ... .. . ... : ... .. . ...
ROW 0D : ... .. . ... ... : ... .. . ... : ... .. . ... : ... .. . ... : ... .. . ... : ... .. . ... : ... .. . ... : ... .. . ...
ROW 0E : ... .. . ... ... : ... .. . ... : ... .. . ... : ... .. . ... : ... .. . ... : ... .. . ... : ... .. . ... : ... .. . ...
ROW 0F : ... .. . ... ... : ... .. . ... : ... .. . ... : ... .. . ... : ... .. . ... : ... .. . ... : ... .. . ... : ... .. . ...
ROW 10 : ... .. . ... ... : ... .. . ... : ... .. . ... : ... .. . ... : ... .. . ... : ... .. . ... : ... .. . ... : ... .. . ...
ROW 11 : ... .. . ... ... : ... .. . ... : ... .. . ... : ... .. . ... : ... .. . ... : ... .. . ... : ... .. . ... : ... .. . ...
ROW 12 : ... .. . ... ... : ... .. . ... : ... .. . ... : ... .. . ... : ... .. . ... : ... .. . ... : ... .. . ... : ... .. . ...
ROW 13 : ... .. . ... ... : ... .. . ... : ... .. . ... : ... .. . ... : ... .. . ... : ... .. . ... : ... .. . ... : ... .. . ...
ROW 14 : ... .. . ... ... : ... .. . ... : ... .. . ... : ... .. . ... : ... .. . ... : ... .. . ... : ... .. . ... : ... .. . ...
ROW 15 : ... .. . ... ... : ... .. . ... : ... .. . ... : ... .. . ... : ... .. . ... : ... .. . ... : ... .. . ... : ... .. . ...
ROW 16 : ... .. . ... ... : ... .. . ... : ... .. . ... : ... .. . ... : ... .. . ... : ... .. . ... : ... .. . ... : ... .. . ...
ROW 17 : ... .. . ... ... : ... .. . ... : ... .. . ... : ... .. . ... : ... .. . ... : ... .. . ... : ... .. . ... : ... .. . ...
ROW 18 : ... .. . ... ... : ... .. . ... : ... .. . ... : ... .. . ... : ... .. . ... : ... .. . ... : ... .. . ... : ... .. . ...
ROW 19 : ... .. . ... ... : ... .. . ... : ... .. . ... : ... .. . ... : ... .. . ... : ... .. . ... : ... .. . ... : ... .. . ...
ROW 1A : ... .. . ... ... : ... .. . ... : ... .. . ... : ... .. . ... : ... .. . ... : ... .. . ... : ... .. . ... : ... .. . ...
ROW 1B : ... .. . ... ... : ... .. . ... : ... .. . ... : ... .. . ... : ... .. . ... : ... .. . ... : ... .. . ... : ... .. . ...
ROW 1C : ... .. . ... ... : ... .. . ... : ... .. . ... : ... .. . ... : ... .. . ... : ... .. . ... : ... .. . ... : ... .. . ...
ROW 1D : ... .. . ... ... : ... .. . ... : ... .. . ... : ... .. . ... : ... .. . ... : ... .. . ... : ... .. . ... : ... .. . ...
ROW 1E : ... .. . ... ... : ... .. . ... : ... .. . ... : ... .. . ... : ... .. . ... : ... .. . ... : ... .. . ... : ... .. . ...
ROW 1F : ... .. . ... ... : ... .. . ... : ... .. . ... : ... .. . ... : ... .. . B02 : ... .. . ... : ... .. . ... : ... .. . ...

# End of export
